<?xml version="1.0" encoding="UTF-8"?>
<svg id="Layer_1" data-name="Layer 1" xmlns="http://www.w3.org/2000/svg" viewBox="0 0 553.1309 102.4855249">
  <defs>
    <style>
      .cls-1 {
        fill: #1e1e1e;
      }

      .cls-1, .cls-2 {
        stroke-width: 0px;
      }

      .cls-2 {
        fill: #588157;
      }
    </style>
  </defs>
  <polygon class="cls-1" points="0 98 95.2725 0 176.5537 98 0 98"/>
  <polygon class="cls-2" points="95.4004 11.4844 162.8916 91.7852 130.9844 68.123 130.7539 87.8711 104.4649 35.4219 80.3389 62.0391 100.0137 26.6621 95.4004 11.4844"/>
  <g>
    <path class="cls-1" d="M175.6055551,39.8824975c.0361328-.2250977.1801758-1.1699219.1801758-1.3500977.3959961-2.0698242,3.8876953.4501953,4.03125-2.0698242.0361328-.4501953.0361328-1.1699219-.1079102-1.6201172v-8.4145508c.1801758-.4047852.0361328-.4951172.1079102-.9897461.0361328-.4052734.1083984-.2700195.1801758-.5849609.144043-.5400391-.144043-1.125-.1801758-1.6201172-.0717773-.8549805.0722656-1.8452148.2880859-2.6547852.0361328-.1352539-.1079102-1.1699219-.1079102-1.215332.0722656-1.5297852.4321289-3.3745117.1079102-4.9047852-.2519531-.1796875-.6479492-.1796875-.8999023-.2246094-.9355469-.3149414-1.7998047,0-2.8076172-.4951172-.2158203-.1801758-.3237305-.4951172-.3959961-.7651367-.0717773-.9897461-.1796875-2.3398438.8642578-2.4296875,1.1875-.0898438,2.159668.2250977,3.347168.2250977,2.3037109,0,3.1679688-.4052734,3.7075195,2.9697266.0722656.5400391.6123047.7651367.5039062,1.4848633.2163086.5400391,1.2241211,3.284668,1.4399414,3.8701172.5400391,1.4848633,1.1879883,2.7895508,1.8720703,4.1396484.0356445.1347656.2519531.6748047.2875977.7651367,0,.0449219.0722656.449707.0722656.4946289.0717773.1352539.7197266,1.3051758.7919922,1.4399414.0356445.0449219.1079102.2250977.1079102.2250977.0356445.1801758.2519531,1.125.2880859,1.2597656.2519531.7651367,2.159668,4.6801758,1.9433594,5.3549805l.5039062,1.0800781c.2163086.0898438.5400391.6298828.684082.4951172,1.0439453-.7651367,2.0878906-5.6699219,2.7358398-5.9399414.0717773-.6748047.3237305-2.1147461.8999023-2.5649414.144043-1.2597656.5756836-2.2949219,1.043457-3.4199219.1801758-.449707.3959961-.7651367.4682617-1.2597656l1.2236328-2.5200195c.0361328-.7202148.2163086-.6748047.3598633-1.2597656.0361328-.090332.1801758-.9902344.2163086-1.0800781,0-.0898438.2519531-.4501953.2875977-.4951172.5761719-1.0800781,1.1523438-4.2749023,2.0517578-5.0395508.8642578-.7202148,1.6201172-.0454102,2.5200195-.090332.9355469-.0449219,1.9794922-.2246094,2.9516602-.1347656,1.0795898.0898438,1.2958984,3.0146484.2875977,3.3295898-.2875977,0-1.5834961.3603516-1.871582.4501953-.5756836.2250977-.8999023.7197266-.7919922,1.4848633l-.1796875.1352539c0,.1347656-.0722656.9448242-.0722656,1.0795898-.144043.8549805-.0356445,1.3500977,0,2.3398438v4.3652344c.2519531,1.2597656-.1079102,2.4296875.0722656,3.6894531v4.5c-.144043.2250977-.0722656.4951172-.0722656.7651367-.0356445.3149414-.1079102,2.0698242-.1079102,2.4296875-.2158203.5849609-.1079102.4052734.2880859.9902344.0361328.0449219.1796875.2700195.2158203.3598633,0,.0449219.0722656.4047852.0722656.4951172,0,0,.1435547.0898438.1796875.0898438,1.7636719.7197266,4.4277344-.3598633,3.1318359,3.3295898-.6479492.675293-4.1396484.1801758-5.1835938.2250977-.1796875,0-1.7636719.090332-1.9438477.090332-.7915039.0898438-1.6196289.2695312-2.4116211.1347656-.8276367-.0898438-1.0795898-1.7998047-.7197266-2.4296875.1079102-.1801758.3959961-.5849609.3959961-.6303711h.3959961c.4677734-.0449219,2.2675781-.0898438,2.5195312-.5849609.2158203-.4047852.3959961-.6748047.3959961-1.0795898.0361328-.2250977.0361328-.9902344,0-1.125,0-.090332-.1801758-.7651367-.1801758-.8549805,0-.0449219.1079102-.5400391.1079102-.5849609.1083984-1.7548828.0722656-3.4648438.1801758-5.1298828.0361328-.4501953-.144043-.5400391-.1079102-1.125.144043-1.4399414.2519531-2.6098633.2158203-4.1396484-.2158203-.2700195-.1796875-2.5200195-.2158203-2.925293,0-.1347656-.0722656-.8999023-.0722656-.9897461-.0356445-.1801758-.0356445-1.1699219,0-1.3500977-.0356445-.2246094-.5039062-.1347656-.5039062-.1347656,0,.0449219-1.5478516,3.4648438-1.6557617,3.824707-.0356445.0898438-.2519531,1.1699219-.2875977,1.3500977-.3959961,1.1699219-1.0800781,2.1147461-1.4760742,3.2397461-.4321289,1.3051758-.7558594,2.8349609-1.3676758,4.0498047-.0361328.1352539-.6118164,1.125-.684082,1.2148438-.2880859.5849609-.2880859,1.4848633-.5756836,2.1152344-.2519531.4946289-.5039062.7197266-.684082,1.2148438-.2158203.7197266-.8999023,3.6450195-1.2597656,4.0048828l-.5039062,1.7099609c-.0722656.2250977-.3242188.3598633-.4682617.3598633-.1435547.0449219-.8637695.0449219-1.0078125,0-.5395508-.2250977-.4316406-.9448242-.5756836-1.4399414,0-.0449219-.1801758-.3598633-.1801758-.3598633-.0361328-.090332-.1079102-.2250977-.1079102-.2700195-.0717773-.1801758-.4321289-1.8901367-.4677734-2.0698242-.0722656-.1801758-.6479492-1.5302734-.7202148-1.7099609,0-.0449219-.0717773-.4052734-.0717773-.4951172-.1079102-.9897461-.3598633-1.2597656-.7919922-2.0698242-.3959961-.675293-.6479492-2.1601562-.8999023-2.8349609-.0361328-.1352539-.3237305-.8100586-.3598633-.9448242-.0361328-.0449219-.2880859-.3149414-.2880859-.3603516-.0717773-.1347656-.2880859-1.125-.3237305-1.2148438-.2163086-.7197266-1.0439453-1.8896484-.8642578-2.8349609-.5756836-.5849609-.8994141-1.5297852-1.4755859-2.0698242-.0361328-.1796875-.2158203-1.034668-.2880859-1.2148438-.0356445-.1352539-.3598633-.8549805-.3959961-.9897461-.2158203-.7202148.1079102-.9902344-.6835938-.8549805,0,0-.0722656.0898438-.0722656.1347656v3.284668c.1801758.4501953,0,2.8349609,0,3.4199219-.0717773,1.4848633.1079102,3.2402344.1801758,4.6801758-.1079102.2695312-.2158203.8095703,0,1.0795898v4.8598633c0,.4052734.5039062.6298828.6835938.8999023h2.1601562c.2519531,0,.6118164.3603516.6479492.7202148.2875977,1.574707.5039062,2.8798828-1.1518555,2.7895508-.6479492,0-3.6357422-.1796875-4.3198242-.2695312-.5395508-.2250977-.6479492,0-1.2597656.1347656-.0361328.0449219-.5039062,0-.5756836,0-.2519531.0449219-1.2241211.1347656-1.3681641.1347656-.5039062.090332-1.1518555.4951172-1.6557617.1352539-.3237305-.2700195-.4316406-.8100586-.3959961-1.2148438Z"/>
    <path class="cls-1" d="M217.0406137,41.2775171c-4.5717773-2.1601562-7.4511719-7.5151367-7.8110352-13.4545898-.0722656-.9448242-.144043-2.2949219.2875977-3.1499023-.1079102-2.6098633.7202148-5.2197266,1.8720703-7.3349609.7919922-1.574707,1.6918945-3.0595703,2.9155273-4.1396484.828125-.7651367,1.7275391-.8549805,2.6274414-1.2597656.9360352-.4052734,1.9438477-.8999023,2.9516602-1.0800781h.3959961c1.4038086.2700195,3.4199219-.0898438,4.7514648.4951172,1.2597656.5400391,2.2675781.9897461,3.527832,1.7099609.0717773,0,.2519531.1796875.2875977.2246094.144043.1801758,1.2602539,1.4399414,1.4038086,1.5751953.5400391.6298828,1.2958984,1.1699219,1.7280273,1.9799805.1079102.1796875.6479492,1.3950195.7919922,1.7099609,1.0795898,2.7446289,1.7275391,5.534668,1.6557617,8.6845703-.0361328.0449219-.1079102.2700195-.1079102.3598633-.0722656.3598633-.4682617,3.4199219-.5761719,3.7797852-.684082,2.7001953-1.8359375,4.8149414-3.3115234,6.8398438-1.2597656,1.7099609-2.5917969,2.3847656-4.2114258,3.5546875l-2.6279297.8549805c-.8999023-.0898438-1.871582.2700195-2.7353516.090332-.5761719-.090332-2.1240234-.4501953-2.2675781-.4951172-.6479492-.1352539-.972168-.675293-1.5478516-.9448242ZM220.0640512,39.4323022h3.0234375c1.4399414-.7197266,2.3759766-.6298828,3.7436523-1.9799805,1.5839844-1.5297852,2.5917969-3.5996094,3.4194336-5.8496094.3959961-1.1699219.6479492-1.5297852.7563477-2.7900391.1796875-1.9799805.1796875-3.0595703,0-5.1298828-.0361328-.449707.0717773-1.034668-.1083984-1.4399414-.6479492-1.6645508-1.5478516-2.9697266-2.4116211-4.4545898-.2880859-.4047852-.0717773-.4951172-.5039062-.8100586-.0361328,0-.1796875-.1347656-.2158203-.1347656-1.1518555-1.125-2.3037109-1.7099609-3.6713867-2.3398438-.4682617-.2250977-.9360352,0-1.4042969-.2250977-2.8076172-.0898438-4.3911133.0898438-6.730957,1.8447266-.6118164.4501953-.8999023,1.6201172-1.4755859,2.2050781-.0361328,0-.0722656.0898438-.1083984.0898438-.4677734,1.2148438-1.1157227,2.4301758-1.331543,3.824707-.0361328.1801758-.3242188,2.4750977-.3959961,3.2402344-.0717773.7646484.3237305,1.7548828,0,2.4746094,0,.2250977.144043,1.3500977.1801758,1.5751953.1435547.9897461.1435547,2.2045898.6118164,3.0595703,0,.090332.4316406.7651367.4677734.8549805.1079102.2250977.6118164,1.3500977.684082,1.5751953.5400391.449707,1.0078125,1.0800781,1.4755859,1.574707.9360352,1.0351562,1.8720703,1.6201172,3.0239258,2.2050781.1435547.0898438.8276367.5400391.9716797.6298828Z"/>
    <path class="cls-1" d="M255.9541879,41.4122827c-1.0439453-1.2597656-1.5839844-2.3847656-2.2675781-3.8696289-.3242188-.7651367-.8642578-1.3950195-1.2597656-2.1152344-.7563477-1.3950195-1.4760742-3.0146484-2.1601562-4.4995117-.3237305-.2700195-1.6557617-2.8349609-1.7275391-3.4199219l-1.0078125-1.5751953c.1796875-.4047852-2.1958008-3.7797852-2.4116211-4.2749023-.0361328-.0449219-.1079102-.449707-.1079102-.4946289s-.2880859-.090332-.2880859-.1352539c-.0361328,0-.1079102-.0898438-.1079102-.1347656-.0722656-.090332-.5400391-1.2148438-.5761719-1.3500977-.2519531-.4951172-.7558594-.8999023-.7197266-1.574707l-1.0439453-1.7099609c-.0361328-.2250977-.5039062-1.3500977-.7919922-1.0800781-.1079102.0898438-.2880859.3149414-.2880859.3598633v1.6201172l-.1079102.2250977v2.699707c-.1796875.4951172-.1079102.9448242,0,1.4399414.1079102.3598633-.1796875.6748047-.1796875.9448242,0,.9902344.5395508,3.6000977.1796875,4.1850586v1.7099609c.0361328.1347656.1801758.5400391.1079102.7197266,0,.0449219-.2158203.4501953-.2158203.4951172-.0717773.8100586.144043,1.6650391.2158203,2.4296875v1.2602539c-.0356445.8100586-.2158203,3.1049805,0,3.7797852.3242188.9897461,2.5917969-.3598633,3.2036133,1.0800781.3242188.7197266.5761719,2.5649414-.4677734,2.699707h-.7919922c-.0361328-.0449219-.5039062-.1347656-.5756836-.1347656-.7202148-.090332-3.0239258-.2250977-3.3120117-.2250977-1.2236328-.0449219-2.5556641.5400391-3.7431641.3598633-1.0800781-.1801758-.8642578-3.284668-.1801758-3.284668h2.3398438c.7919922,0,1.0439453-.9453125,1.0795898-1.7553711.0361328-.3598633.0361328-2.159668,0-2.5195312-.2519531-.6298828.0361328-.9453125.1083984-1.6201172v-1.7099609c0-.3598633-.0722656-1.9350586-.1083984-2.2949219.2163086-.4047852.0361328-.7646484.1083984-1.2148438.0356445-.2700195.2158203-1.4848633.2875977-1.7548828-.0356445,0-.1079102-.1801758-.1079102-.2250977-.0361328-.2250977-.0717773-.9448242-.0717773-1.0800781v-7.2446289c.144043-.5400391.144043-1.574707-.3242188-1.9345703-.7919922-.2250977-3.0234375-.0454102-3.3115234-1.215332-.0361328-.9897461-.2158203-2.3847656.7919922-2.4296875,1.1879883-.0898438,2.3754883.1796875,3.5996094.0898438.5039062,0,1.9794922-.3598633,2.4477539-.2250977,1.1518555.3149414,1.4394531,1.215332,2.0517578,2.4301758.2158203.4047852,1.2597656,2.2949219,1.4755859,2.699707.0722656.8100586.3959961,1.0351562.7558594,1.7099609.0722656.0898438.4321289.9902344.5039062,1.0800781.144043.2700195.684082.6298828.684082,1.125l2.4477539,4.7695312c.0361328.1801758.9360352,1.4853516,1.1879883,1.7099609,0,0,.3237305.1801758.3598633.2250977.0356445.0449219.1079102.5849609.1079102.5849609.5039062,1.4399414,1.3676758,2.6098633,1.9438477,3.9150391.0717773.1347656.4316406,1.2597656.5039062,1.3496094.2158203.4501953,1.1518555,2.1152344,1.6557617,1.9799805.2880859-.7197266.2519531-1.8447266.1796875-2.5649414.2519531-.0898438,0-1.2148438,0-1.2597656v-1.6650391c0-.1796875.1083984-1.3500977.1083984-1.4848633.0356445-.0898438.0356445-.4501953,0-.4951172,0-.0898438-.1801758-.7646484-.1801758-.8549805v-.0898438c0-.0898438.0717773-.6748047.0717773-.7651367.0361328-.4047852.0361328-2.2495117,0-2.6547852.2880859-.9448242,0-2.8349609,0-3.6899414.0722656-1.1699219.0722656-2.0698242,0-3.284668,0-.1352539.0722656-.8549805-.2519531-.7202148-.0356445,0-.2158203.2250977-.2158203.2250977-.0361328,0-.2519531-.1347656-.2880859-.1347656-.1796875-.0449219-1.0795898-.1801758-1.2597656-.2250977-.3237305-.4501953-.8637695-.3149414-1.1879883-.4951172-.7197266-.3598633-.7915039-3.284668,0-3.284668h2.4477539c.2880859.1796875.8642578.2250977,1.0800781.2250977h2.2314453c.1083984,0,1.1518555-.1352539,1.2602539-.1352539h1.4038086c1.1157227.0898438.8637695,1.6201172.6479492,2.5649414-.3603516,1.8447266-3.3837891.4501953-3.3837891,2.1147461v2.5649414c.1801758.6298828-.1079102,1.5302734-.144043,2.2050781.144043.2250977.144043.3598633,0,.5849609l-.0361328,5.2646484v.4951172c-.0356445,1.0800781-.1079102,6.2998047-.1435547,7.4248047-.0361328,1.4399414.6835938,6.7495117-.3959961,7.8295898-.5039062.1347656-1.0439453.1801758-1.5478516,0-.0361328-.0449219-.2519531-.2250977-.2880859-.2700195Z"/>
    <path class="cls-1" d="M267.0088754,38.3976343c.1079102-1.0351562.2519531-1.800293,1.1513672-1.8452148h1.4760742c.3598633,0,1.4755859-.0898438,1.5839844-.0898438.0356445-.0449219.5039062-.2700195.6479492-.4052734.0356445,0,.1079102-.0898438.1079102-.1347656-.0722656-.7651367.1796875-1.2597656.3237305-2.0698242,0-.1801758-.0717773-.2700195-.1079102-.4501953-.1079102-.8999023.144043-3.2397461,0-3.5546875-.1801758-1.6650391.0361328-3.1499023,0-4.7700195-.0717773-1.3496094-.2880859-2.7446289.1079102-4.0048828v-6.0297852c0-.1347656.0361328-.8095703.0722656-.9448242.0356445-.3149414.0356445-.9897461,0-.9897461l-.2880859-.1352539c-.3959961,0-2.3398438-.0898438-2.7358398-.0898438-1.1518555-.0898438-2.159668.0449219-3.3476562,0l-.8276367,1.0800781-.2158203,3.1948242c-.1083984,1.4848633-1.2241211,1.9350586-2.2319336,1.574707-.1801758-.2250977-.2519531-.449707-.3237305-.7646484-.144043-.8100586.2519531-1.7099609.3237305-2.5200195,0-.5400391.1079102-1.4848633.0717773-2.0698242-.0717773-1.2602539-.4677734-3.1948242.7919922-3.6899414,1.7998047-.0449219,3.7436523-.1352539,5.543457.2700195.144043,0,.2158203-.0449219.3237305-.1352539,4.8955078.2250977,9.6831055-.7197266,14.5424805-.4946289.5400391.0449219.6474609.8095703.7919922,1.3496094-.0361328,1.2602539-.0722656,3.375.0712891,4.7700195.1083984.7651367.7197266,2.5200195-.1796875,3.1499023-.5761719.0449219-1.3681641.2250977-1.7636719-.4501953-.3242188-1.3950195-.2158203-2.9248047-.3964844-4.3198242-.0712891-.1796875-.0712891-.5849609-.2871094-.7197266-1.0800781-.8100586-2.4482422-.4052734-3.5996094-.3603516h-3.4199219c-.0717773.2250977-.2519531,1.215332-.3237305,1.4853516v.4946289c.0361328.1352539.2158203,1.4853516.2158203,1.6650391.0361328.3149414-.0717773.5849609-.0717773.8549805v.1352539c0,.1796875.0717773,1.4399414.0717773,1.574707v1.4848633c0,.0449219.0722656.3149414.1079102.3598633.144043,2.25.3603516,4.8149414,0,7.1098633-.0717773.3598633.0722656,1.2148438.0722656,1.5751953.0717773,2.0698242-.0361328,4.0498047,0,6.1196289.4677734,1.574707,3.7070312-.4501953,4.8232422,1.1699219.1435547.2700195.1435547.8100586.1796875.9897461.2880859,1.7099609-.4677734,2.2050781-1.7636719,2.1152344-.3598633-.0449219-3.4194336-.3603516-3.8154297-.4052734-1.6196289-.0898438-3.3476562.0449219-4.9672852.2700195-.7919922.090332-1.4038086.3603516-2.159668,0-.5039062-.2250977-.6479492-.7197266-.5756836-1.3496094Z"/>
    <path class="cls-1" d="M286.0523325,37.5426538h1.5478516c.4316406,0,.6474609.2700195.9716797,0,.9003906-.7651367,1.0078125-2.5649414,1.4042969-3.6899414.7558594-2.2050781,1.5839844-4.3647461,2.4111328-6.5698242.0722656-.1801758.5039062-1.5297852.5761719-1.7099609.0361328-.0898438.1796875-.3149414.2158203-.3598633l2.4482422-7.3349609c.2519531-1.2597656.6835938-2.3398438,1.0791016-3.5546875.5400391-1.7548828,1.2597656-4.7700195,3.3115234-4.1396484.1806641.0449219.828125.449707.9726562.5849609.2519531.4946289.8271484,1.574707.7919922,2.3398438.6835938,1.3046875,1.1513672,2.8798828,1.4394531,4.409668.5039062.7651367.5761719,1.6201172.7919922,2.5649414.1074219.4047852.1074219.0898438.2880859.4951172.0712891.0898438.2519531.8999023.2880859,1.0795898.0351562.1352539.2871094,1.0800781.2871094,1.215332.1445312.4047852.3964844.7197266.5048828,1.125.2871094,1.1245117.5039062,2.5195312.9716797,3.5097656.0361328.0898438.3955078.5400391.3955078.6298828.0361328.0898438.1796875.8549805.1796875.9448242.3242188,1.2148438.9365234,2.2050781,1.4042969,3.3300781.1435547.449707.8994141,2.4746094,1.0439453,2.9248047-.0722656.449707.3242188.9448242.3955078,1.3500977.0361328,0,0,.3149414,0,.3598633.3964844,1.1699219,2.7724609.1347656,3.2402344,1.0800781,0,.0898438.0712891.3149414.0712891.4047852.2167969,1.3950195.2167969,2.2050781-.8632812,2.7900391-2.3398438.0898438-4.6074219-.4951172-6.9472656-.3603516-1.9433594.090332-3.0957031,1.4853516-3.3115234-1.8447266-.0361328-.6748047.4316406-1.2597656.8994141-1.574707,1.4042969-.090332,3.0957031,1.1699219,2.9160156-1.4853516-.1083984-.3598633-.5761719-2.0698242-.6835938-2.4296875-.0361328-.0449219-.0722656-.2250977-.0722656-.2700195-.3964844-.6748047-.5400391-1.9350586-1.2958984-2.159668h-.5039062c-.0722656,0-.3955078-.090332-.4677734-.1352539h-7.2353516c-1.4755859,0-1.8359375,1.3500977-2.4472656,2.699707-.46875,1.0351562-.828125,1.9799805-1.0800781,3.1953125.1796875.2246094.2519531.5849609.5039062.8095703.7558594-.0898438,1.9433594-.0898438,2.6279297.4951172,0,0,.0712891.1801758.1074219.2700195.1083984.3149414.3603516,1.1699219.2880859,1.5751953-.1796875,1.2597656-1.7275391,1.6196289-2.4472656.9448242-.1806641.0449219-.9003906.0449219-1.0800781,0-.0361328,0-.2519531-.090332-.2880859-.090332h-.4677734c-.3964844,0-2.2675781.1801758-2.6640625.2250977,0,.0449219-.1435547.1352539-.1796875.1352539-.6835938.1347656-1.5839844.1347656-2.2314453.1347656-.0361328-.0449219-.1806641-.1347656-.2167969-.1347656-.9716797-.7202148-1.1875-3.6450195.1083984-3.7797852ZM302.9341684,28.0026147c.3242188-.2695312.1445312-1.0795898,0-1.4399414-.0361328-.1347656-.5400391-.9897461-.5761719-1.1245117-.0712891-.1801758-.5039062-1.9799805-.5751953-2.2050781-.0361328-.1801758-.6484375-1.3950195-.6845703-1.5751953-.5400391-1.3945312-.7919922-3.3295898-1.3671875-4.6347656-.0361328-.0449219-.2880859-.3149414-.2880859-.4047852-.0361328,0,0-.4047852,0-.4501953-.0361328-.0449219-.1445312-.1347656-.2158203-.1347656h-.1083984c-.7197266.6748047-.8642578,2.25-1.1523438,3.1948242-.0712891.1801758-.7197266,1.8447266-.7910156,2.0698242-.3964844,1.1699219-.6845703,2.4301758-1.0439453,3.6450195-.3603516.9897461-.6845703,1.8447266-.6123047,2.9697266.7558594-.0898438,1.5839844.1801758,2.3398438.2250977h2.3398438c.9355469.0449219,1.7998047.0898438,2.7353516-.1352539Z"/>
    <path class="cls-1" d="M316.7242075,36.7775171c-.1083984-.1801758-.4677734-.6748047-.5039062-.7202148-.0722656-.1796875-.8642578-1.7548828-.9716797-1.9345703-.0361328-.0449219-.1806641-.2250977-.1806641-.2700195-1.3671875-3.1948242-2.0878906-7.0200195-1.3671875-10.6196289.1435547-.8100586.4316406-2.25.7558594-3.0600586.4677734-1.034668.7558594-1.2597656,1.2958984-2.2045898.0351562-.0454102.2519531-.6303711.2871094-.7202148,1.0439453-2.0249023,3.7802734-4.5449219,5.5800781-5.2197266.3955078.1347656.9355469-.3598633,1.2597656-.4951172,2.0878906-.9448242,4.6787109-1.3496094,6.8388672-.4946289.3242188.0898438,2.8076172,1.2148438,3.1318359,1.3496094.1435547.0449219.6835938.1801758.8632812.090332,0,0,.1445312-.1801758.2167969-.2250977.5751953-.9448242,1.7275391-1.4399414,2.4111328-.2250977.0361328,1.2597656,0,2.0249023-.0722656,3.4199219-.0712891,1.0800781.2167969,2.1147461,0,3.1499023-.0712891.2250977-.1435547.3598633-.2871094.3598633-.3242188.0449219-.9365234.0898438-1.1884766-.2250977-.4316406-.4946289-.5761719-1.034668-.9716797-1.4848633-.6474609-.6748047-1.2958984-1.2597656-1.8720703-2.0698242-1.0791016.2250977-2.015625-.7202148-3.0234375-1.0800781-.2158203-.0898438-.4677734.1801758-.6835938.1352539-1.2958984-.3603516-1.8720703-.090332-3.2041016.0898438-.5039062.4047852-1.2958984.4047852-1.7636719.4951172-.3955078.1796875-1.9433594,1.3046875-2.2675781,1.574707-.1796875.1801758-1.5839844,1.7548828-1.7275391,1.9799805-.1445312.0898438-.3603516.2700195-.5039062.3598633-.4677734.9902344-.7558594,1.6201172-.9003906,2.6547852,0,.0454102-.0712891.2250977-.0712891.2700195-.2519531.4501953-.0722656,1.125-.3964844,1.215332-.4677734,2.5195312-.5400391,4.5898438.2158203,7.0644531,0,.0898438.3964844.9902344.5761719,1.3500977.2880859.6748047-.1083984.7197266.1796875,1.125.6484375.8999023,1.3681641,1.9350586,2.0517578,2.7895508.0361328.090332.5039062.5849609.5761719.6303711.0722656.0898438.4316406.4946289.5039062.6298828l2.84375,1.6650391c.0722656.0898438.5400391.2246094.6835938.2700195,3.1679688.5395508,5.3632812.1796875,7.9912109-2.2050781.2158203-.1801758.6835938-.9902344.7919922-1.0800781.2519531-.4047852.1796875-1.0800781.3603516-1.574707.0351562-.4501953.0351562-2.4301758,0-2.8349609-.0361328-2.1147461-1.4042969-.8100586-2.4121094-1.7099609-.1083984-.0898438-.3242188-.3149414-.3242188-.3598633v-1.4853516c0-1.1245117,2.015625-.6298828,2.5556641-.5849609h1.4765625c.3232422-.0449219,1.8349609-.1347656,2.1230469-.1347656,1.1162109-.7197266,1.2236328,1.2597656.7919922,2.0698242-.2519531.5400391-.828125.9448242-1.1513672,1.4399414-.3964844.675293-.2880859,3.6000977-.2167969,4.5449219-.2158203.2700195-.2158203,2.3398438-.1074219,2.7900391.0361328.4047852.0361328,2.2045898,0,2.6098633-.0361328,1.3950195-1.1162109,1.2597656-2.015625,1.1699219-.0361328,0-.2519531-.2700195-.3242188-.3598633-.0361328-.0454102-.1083984-.2250977-.1083984-.2250977v-1.7099609h-.8632812c-1.0800781,1.4848633-2.7353516,2.4746094-4.2832031,2.9248047-.4326172.0898438-.9003906.0449219-1.2958984.3598633-.5761719-.0449219-1.1884766.1801758-1.7285156.1352539-.7919922-.090332-2.8076172-.3603516-2.84375-.4052734-2.2314453-.5849609-5.1826172-2.7895508-6.7304688-4.9946289Z"/>
    <path class="cls-1" d="M360.2818247,41.4122827c-1.0439453-1.2597656-1.5839844-2.3847656-2.2675781-3.8696289-.3242188-.7651367-.8642578-1.3950195-1.2597656-2.1152344-.7568359-1.3950195-1.4765625-3.0146484-2.1601562-4.4995117-.3242188-.2700195-1.65625-2.8349609-1.7275391-3.4199219l-1.0078125-1.5751953c.1796875-.4047852-2.1962891-3.7797852-2.4121094-4.2749023-.0361328-.0449219-.1083984-.449707-.1083984-.4946289s-.2871094-.090332-.2871094-.1352539c-.0361328,0-.1083984-.0898438-.1083984-.1347656-.0722656-.090332-.5400391-1.2148438-.5761719-1.3500977-.2519531-.4951172-.7558594-.8999023-.7197266-1.574707l-1.0439453-1.7099609c-.0361328-.2250977-.5039062-1.3500977-.7919922-1.0800781-.1074219.0898438-.2880859.3149414-.2880859.3598633v1.6201172l-.1074219.2250977v2.699707c-.1796875.4951172-.1083984.9448242,0,1.4399414.1074219.3598633-.1796875.6748047-.1796875.9448242,0,.9902344.5390625,3.6000977.1796875,4.1850586v1.7099609c.0361328.1347656.1796875.5400391.1074219.7197266,0,.0449219-.2158203.4501953-.2158203.4951172-.0712891.8100586.1445312,1.6650391.2158203,2.4296875v1.2602539c-.0351562.8100586-.2158203,3.1049805,0,3.7797852.3242188.9897461,2.5917969-.3598633,3.2041016,1.0800781.3242188.7197266.5761719,2.5649414-.4677734,2.699707h-.7919922c-.0361328-.0449219-.5039062-.1347656-.5761719-.1347656-.7197266-.090332-3.0234375-.2250977-3.3115234-.2250977-1.2236328-.0449219-2.5556641.5400391-3.7431641.3598633-1.0800781-.1801758-.8642578-3.284668-.1806641-3.284668h2.3398438c.7919922,0,1.0439453-.9453125,1.0800781-1.7553711.0361328-.3598633.0361328-2.159668,0-2.5195312-.2519531-.6298828.0361328-.9453125.1083984-1.6201172v-1.7099609c0-.3598633-.0722656-1.9350586-.1083984-2.2949219.2158203-.4047852.0361328-.7646484.1083984-1.2148438.0351562-.2700195.2158203-1.4848633.2871094-1.7548828-.0351562,0-.1074219-.1801758-.1074219-.2250977-.0361328-.2250977-.0722656-.9448242-.0722656-1.0800781v-7.2446289c.1445312-.5400391.1445312-1.574707-.3242188-1.9345703-.7919922-.2250977-3.0234375-.0454102-3.3115234-1.215332-.0361328-.9897461-.2158203-2.3847656.7919922-2.4296875,1.1884766-.0898438,2.3759766.1796875,3.5996094.0898438.5039062,0,1.9794922-.3598633,2.4482422-.2250977,1.1513672.3149414,1.4394531,1.215332,2.0517578,2.4301758.2158203.4047852,1.2597656,2.2949219,1.4755859,2.699707.0722656.8100586.3955078,1.0351562.7558594,1.7099609.0722656.0898438.4316406.9902344.5039062,1.0800781.1435547.2700195.6835938.6298828.6835938,1.125l2.4482422,4.7695312c.0361328.1801758.9355469,1.4853516,1.1875,1.7099609,0,0,.3242188.1801758.3603516.2250977.0351562.0449219.1074219.5849609.1074219.5849609.5039062,1.4399414,1.3681641,2.6098633,1.9443359,3.9150391.0712891.1347656.4316406,1.2597656.5039062,1.3496094.2158203.4501953,1.1513672,2.1152344,1.6552734,1.9799805.2880859-.7197266.2519531-1.8447266.1796875-2.5649414.2519531-.0898438,0-1.2148438,0-1.2597656v-1.6650391c0-.1796875.1083984-1.3500977.1083984-1.4848633.0361328-.0898438.0361328-.4501953,0-.4951172,0-.0898438-.1796875-.7646484-.1796875-.8549805v-.0898438c0-.0898438.0712891-.6748047.0712891-.7651367.0361328-.4047852.0361328-2.2495117,0-2.6547852.2880859-.9448242,0-2.8349609,0-3.6899414.0722656-1.1699219.0722656-2.0698242,0-3.284668,0-.1352539.0722656-.8549805-.2519531-.7202148-.0351562,0-.2158203.2250977-.2158203.2250977-.0361328,0-.2519531-.1347656-.2880859-.1347656-.1796875-.0449219-1.0791016-.1801758-1.2597656-.2250977-.3232422-.4501953-.8632812-.3149414-1.1875-.4951172-.7197266-.3598633-.7919922-3.284668,0-3.284668h2.4472656c.2880859.1796875.8642578.2250977,1.0800781.2250977h2.2314453c.1083984,0,1.1523438-.1352539,1.2607422-.1352539h1.4033203c1.1162109.0898438.8642578,1.6201172.6484375,2.5649414-.3603516,1.8447266-3.3837891.4501953-3.3837891,2.1147461v2.5649414c.1796875.6298828-.1083984,1.5302734-.1445312,2.2050781.1445312.2250977.1445312.3598633,0,.5849609l-.0361328,5.2646484v.4951172c-.0351562,1.0800781-.1074219,6.2998047-.1435547,7.4248047-.0361328,1.4399414.6835938,6.7495117-.3955078,7.8295898-.5039062.1347656-1.0439453.1801758-1.5478516,0-.0361328-.0449219-.2519531-.2250977-.2880859-.2700195Z"/>
    <path class="cls-1" d="M367.7359262,37.8575952h2.4121094c.4316406-.2250977,1.3671875-.090332,1.4755859-.8549805.1435547-1.125.2519531-2.2949219.1796875-3.4199219-.0361328-.8100586-.1435547-.8999023-.0722656-1.6201172,0-.1796875.1445312-1.9350586.1806641-2.2045898.0361328-.1352539.0361328-.8100586,0-.9453125-.0361328-.6298828.0712891-1.2597656,0-1.8447266-.2880859-2.7900391-.2519531-5.7148438-.1083984-8.5498047,0-.1796875.1796875-1.8447266.1796875-2.0698242.0361328-.2700195-.1796875-1.5297852-.359375-1.574707-.9003906-.1801758-1.9082031-.1801758-2.7353516-.1352539-1.1523438-.4951172-1.1162109-3.2397461.1796875-3.5097656,1.0439453-.2700195,2.1953125.3149414,3.2392578.3149414h2.6279297c.1435547.1347656,5.9755859.1801758,6.2626953-.0898438,1.5839844.7197266,4.2841797,0,5.9394531.0898438.7197266-.3149414.6845703-.1801758,1.3681641-.0898438,2.7353516.3598633,1.7998047,2.4296875,2.5556641,4.9946289.0361328.1347656.4677734,1.2597656.5761719,1.574707.5751953,1.4853516.4677734,2.2949219-.9726562,2.0703125-.6835938-.090332-.8994141-.9453125-1.1513672-1.5751953-.1435547-.3149414-.7558594-1.7548828-.9003906-2.0698242-.2871094-.0898438-.8994141-.8999023-1.3671875-1.125-.3242188-.1347656-1.1523438-.4047852-1.4755859-.3598633-.3964844.0898438-.6484375.2700195-1.0800781.1347656-.0361328,0-.3242188-.2246094-.3964844-.2246094-.0712891-.0454102-.5400391-.0454102-.6474609,0-.2158203.0449219-1.0800781.1796875-1.2958984.2246094l-.1796875-.1347656c-.0722656,0-1.0800781-.0898438-1.4765625-.0898438-.7558594,0-1.3310547.2695312-2.0517578,0h-2.4472656c-.3242188.2246094-.828125-.0454102-1.0439453.449707-.5761719,1.2148438-.2880859,2.9248047-.6123047,4.1850586-.0712891.2246094.0722656.449707.2167969.5849609.0351562.449707.1796875,1.6645508.1796875,2.2045898,0,.2700195-.2880859,1.3950195-.1796875,1.7099609.1796875.7651367,1.9794922.090332,2.5195312.3598633h2.2675781l.2880859-.3598633.3955078-2.6547852c.0361328-.3149414.3603516-.5849609.5761719-.6298828,2.7714844-.5400391,1.9082031,2.5649414,1.8359375,4.8598633v2.9248047c.0361328.8549805.4316406,2.0249023-.2880859,2.6098633-.6484375.2250977-1.65625.0898438-1.9433594-.8549805-.3242188-1.0800781.2158203-1.9799805-.5761719-2.8349609-1.1162109.0898438-1.5478516-.0898438-2.5556641-.2250977-.6484375-.0898438-1.3681641.1352539-2.0517578.1352539-.6484375.2250977-.9365234,1.7099609-.6845703,2.4296875.0722656,1.7548828-.1435547,2.9248047.2167969,4.6347656,0,.1352539-.0722656.4501953-.1083984.4951172v2.5649414c0,.4047852.9003906.1347656,1.0800781.3598633.7558594.1801758,1.4394531.6298828,2.1591797.2250977h8.9628906c.2167969-.5849609,1.0078125-1.7998047,1.3681641-2.1601562l1.2958984-2.8344727c.2158203-1.1699219.6474609-2.0249023,1.65625-1.9350586.8632812.0898438.8632812.3149414.7558594,1.4399414-.0722656.9897461-.2167969,1.9350586-.46875,2.8349609l-.3955078,4.7246094c-.0361328.4501953-.2880859.8999023-.6123047.9902344-.2158203.0449219-1.2958984.2246094-1.5478516.2700195h-.1796875c-.3603516-.0454102-2.015625-.1352539-2.3398438-.1352539-.4677734-.2700195-.8994141.0449219-1.3671875,0-1.1884766-.0898438-2.3759766-.0898438-3.5283203-.3598633h-5.0751953c-.6835938.1796875-1.0078125-.0898438-1.5839844,0-2.2675781.4047852-4.6435547.4047852-6.9111328.5849609-.4677734.0449219-.5400391.0449219-1.0078125-.3598633-.3232422-.3149414-.0712891-3.1499023.828125-3.1499023Z"/>
    <path class="cls-1" d="M424.397059,41.4122827c-1.0439453-1.2597656-1.5839844-2.3847656-2.2675781-3.8696289-.3242188-.7651367-.8642578-1.3950195-1.2597656-2.1152344-.7568359-1.3950195-1.4765625-3.0146484-2.1601562-4.4995117-.3242188-.2700195-1.65625-2.8349609-1.7275391-3.4199219l-1.0078125-1.5751953c.1796875-.4047852-2.1962891-3.7797852-2.4121094-4.2749023-.0361328-.0449219-.1083984-.449707-.1083984-.4946289s-.2871094-.090332-.2871094-.1352539c-.0361328,0-.1083984-.0898438-.1083984-.1347656-.0722656-.090332-.5400391-1.2148438-.5761719-1.3500977-.2519531-.4951172-.7558594-.8999023-.7197266-1.574707l-1.0439453-1.7099609c-.0361328-.2250977-.5039062-1.3500977-.7919922-1.0800781-.1074219.0898438-.2880859.3149414-.2880859.3598633v1.6201172l-.1074219.2250977v2.699707c-.1796875.4951172-.1083984.9448242,0,1.4399414.1074219.3598633-.1796875.6748047-.1796875.9448242,0,.9902344.5390625,3.6000977.1796875,4.1850586v1.7099609c.0361328.1347656.1796875.5400391.1074219.7197266,0,.0449219-.2158203.4501953-.2158203.4951172-.0712891.8100586.1445312,1.6650391.2158203,2.4296875v1.2602539c-.0351562.8100586-.2158203,3.1049805,0,3.7797852.3242188.9897461,2.5917969-.3598633,3.2041016,1.0800781.3242188.7197266.5761719,2.5649414-.4677734,2.699707h-.7919922c-.0361328-.0449219-.5039062-.1347656-.5761719-.1347656-.7197266-.090332-3.0234375-.2250977-3.3115234-.2250977-1.2236328-.0449219-2.5556641.5400391-3.7431641.3598633-1.0800781-.1801758-.8642578-3.284668-.1806641-3.284668h2.3398438c.7919922,0,1.0439453-.9453125,1.0800781-1.7553711.0361328-.3598633.0361328-2.159668,0-2.5195312-.2519531-.6298828.0361328-.9453125.1083984-1.6201172v-1.7099609c0-.3598633-.0722656-1.9350586-.1083984-2.2949219.2158203-.4047852.0361328-.7646484.1083984-1.2148438.0351562-.2700195.2158203-1.4848633.2871094-1.7548828-.0351562,0-.1074219-.1801758-.1074219-.2250977-.0361328-.2250977-.0722656-.9448242-.0722656-1.0800781v-7.2446289c.1445312-.5400391.1445312-1.574707-.3242188-1.9345703-.7919922-.2250977-3.0234375-.0454102-3.3115234-1.215332-.0361328-.9897461-.2158203-2.3847656.7919922-2.4296875,1.1884766-.0898438,2.3759766.1796875,3.5996094.0898438.5039062,0,1.9794922-.3598633,2.4482422-.2250977,1.1513672.3149414,1.4394531,1.215332,2.0517578,2.4301758.2158203.4047852,1.2597656,2.2949219,1.4755859,2.699707.0722656.8100586.3955078,1.0351562.7558594,1.7099609.0722656.0898438.4316406.9902344.5039062,1.0800781.1435547.2700195.6835938.6298828.6835938,1.125l2.4482422,4.7695312c.0361328.1801758.9355469,1.4853516,1.1875,1.7099609,0,0,.3242188.1801758.3603516.2250977.0351562.0449219.1074219.5849609.1074219.5849609.5039062,1.4399414,1.3681641,2.6098633,1.9443359,3.9150391.0712891.1347656.4316406,1.2597656.5039062,1.3496094.2158203.4501953,1.1513672,2.1152344,1.6552734,1.9799805.2880859-.7197266.2519531-1.8447266.1796875-2.5649414.2519531-.0898438,0-1.2148438,0-1.2597656v-1.6650391c0-.1796875.1083984-1.3500977.1083984-1.4848633.0361328-.0898438.0361328-.4501953,0-.4951172,0-.0898438-.1796875-.7646484-.1796875-.8549805v-.0898438c0-.0898438.0712891-.6748047.0712891-.7651367.0361328-.4047852.0361328-2.2495117,0-2.6547852.2880859-.9448242,0-2.8349609,0-3.6899414.0722656-1.1699219.0722656-2.0698242,0-3.284668,0-.1352539.0722656-.8549805-.2519531-.7202148-.0351562,0-.2158203.2250977-.2158203.2250977-.0361328,0-.2519531-.1347656-.2880859-.1347656-.1796875-.0449219-1.0791016-.1801758-1.2597656-.2250977-.3232422-.4501953-.8632812-.3149414-1.1875-.4951172-.7197266-.3598633-.7919922-3.284668,0-3.284668h2.4472656c.2880859.1796875.8642578.2250977,1.0800781.2250977h2.2314453c.1083984,0,1.1523438-.1352539,1.2607422-.1352539h1.4033203c1.1162109.0898438.8642578,1.6201172.6484375,2.5649414-.3603516,1.8447266-3.3837891.4501953-3.3837891,2.1147461v2.5649414c.1796875.6298828-.1083984,1.5302734-.1445312,2.2050781.1445312.2250977.1445312.3598633,0,.5849609l-.0361328,5.2646484v.4951172c-.0351562,1.0800781-.1074219,6.2998047-.1435547,7.4248047-.0361328,1.4399414.6835938,6.7495117-.3955078,7.8295898-.5039062.1347656-1.0439453.1801758-1.5478516,0-.0361328-.0449219-.2519531-.2250977-.2880859-.2700195Z"/>
    <path class="cls-1" d="M438.7622934,41.2775171c-4.5712891-2.1601562-7.4511719-7.5151367-7.8105469-13.4545898-.0722656-.9448242-.1445312-2.2949219.2871094-3.1499023-.1074219-2.6098633.7207031-5.2197266,1.8720703-7.3349609.7919922-1.574707,1.6923828-3.0595703,2.9160156-4.1396484.828125-.7651367,1.7275391-.8549805,2.6269531-1.2597656.9365234-.4052734,1.9443359-.8999023,2.9521484-1.0800781h.3955078c1.4042969.2700195,3.4199219-.0898438,4.7519531.4951172,1.2597656.5400391,2.2675781.9897461,3.5273438,1.7099609.0722656,0,.2519531.1796875.2880859.2246094.1435547.1801758,1.2597656,1.4399414,1.4033203,1.5751953.5400391.6298828,1.2958984,1.1699219,1.7275391,1.9799805.1083984.1796875.6484375,1.3950195.7919922,1.7099609,1.0800781,2.7446289,1.7285156,5.534668,1.65625,8.6845703-.0361328.0449219-.1083984.2700195-.1083984.3598633-.0712891.3598633-.4677734,3.4199219-.5751953,3.7797852-.6845703,2.7001953-1.8359375,4.8149414-3.3115234,6.8398438-1.2607422,1.7099609-2.5917969,2.3847656-4.2119141,3.5546875l-2.6279297.8549805c-.8994141-.0898438-1.8710938.2700195-2.7353516.090332-.5761719-.090332-2.1240234-.4501953-2.2675781-.4951172-.6474609-.1352539-.9716797-.675293-1.5478516-.9448242ZM441.7857309,39.4323022h3.0234375c1.4404297-.7197266,2.3759766-.6298828,3.7441406-1.9799805,1.5830078-1.5297852,2.5908203-3.5996094,3.4189453-5.8496094.3964844-1.1699219.6484375-1.5297852.7558594-2.7900391.1806641-1.9799805.1806641-3.0595703,0-5.1298828-.0361328-.449707.0722656-1.034668-.1074219-1.4399414-.6484375-1.6645508-1.5478516-2.9697266-2.4121094-4.4545898-.2880859-.4047852-.0722656-.4951172-.5039062-.8100586-.0361328,0-.1796875-.1347656-.2158203-.1347656-1.1523438-1.125-2.3037109-1.7099609-3.671875-2.3398438-.4677734-.2250977-.9355469,0-1.4033203-.2250977-2.8076172-.0898438-4.3916016.0898438-6.7314453,1.8447266-.6113281.4501953-.8994141,1.6201172-1.4755859,2.2050781-.0361328,0-.0722656.0898438-.1083984.0898438-.4677734,1.2148438-1.1152344,2.4301758-1.3310547,3.824707-.0361328.1801758-.3242188,2.4750977-.3964844,3.2402344-.0722656.7646484.3242188,1.7548828,0,2.4746094,0,.2250977.1445312,1.3500977.1806641,1.5751953.1435547.9897461.1435547,2.2045898.6113281,3.0595703,0,.090332.4316406.7651367.4677734.8549805.1083984.2250977.6123047,1.3500977.6845703,1.5751953.5400391.449707,1.0078125,1.0800781,1.4755859,1.574707.9355469,1.0351562,1.8720703,1.6201172,3.0234375,2.2050781.1435547.0898438.828125.5400391.9716797.6298828Z"/>
    <path class="cls-1" d="M457.0503794,40.1974389v-1.4399414c.1083984-2.0249023,3.6357422-.1801758,3.6357422-1.7998047v-6.2548828c.2158203-.5400391-.0361328-1.2602539,0-1.8452148,0-.0449219.0722656-.4047852.0722656-.4946289.0351562-.0449219.2158203-.4052734.2158203-.4501953s-.1083984-.2250977-.1083984-.2700195c-.2158203-1.0800781-.2880859-2.4746094-.1074219-3.5546875v-4.5c.0351562-.0898438.1074219-.5400391.1074219-.6298828v-2.4296875c.1796875-.2250977.1083984-1.7548828-.1074219-1.800293-.1083984-.0898438-.7207031-.2700195-.8642578-.2700195-.2158203-.0449219-.5039062.090332-.6835938-.1347656-.9003906.1347656-1.4042969.1801758-2.1601562-.2250977-.3603516-.2250977-.5039062-.4951172-.5761719-.9897461-.4677734-2.3398438.7919922-2.1152344,2.2324219-1.9350586.0712891,0,.4677734-.0449219.5039062,0,.1435547,0,.7558594.0898438.8994141.1352539h4.9677734c.2880859-.0454102,1.5839844-.1801758,1.8359375-.2700195,1.5478516.1347656,1.1513672,2.1147461.6113281,3.284668-.7558594.4047852-2.9511719.1347656-3.3476562.4951172-.2158203.2246094-.4316406.6748047-.4677734.9897461-.1796875.9902344.2158203,2.1601562.2880859,3.1499023,0,.2700195-.0722656.3598633-.0722656.6298828-.0712891.4052734.1083984.7202148.0722656,1.0800781-.0722656.8100586-.3603516,1.6650391-.0722656,2.4750977v3.8696289c.1445312.6748047.3242188,1.7548828,0,2.3398438v4.2749023c-.0361328.1347656-.1435547,1.3051758-.1435547,1.4848633,0,0,.1074219.3149414.1435547.3598633.0361328.8100586-.5761719,2.3852539.5761719,2.3852539h2.8076172c.6123047,0,1.4042969,3.1044922-.1796875,3.2397461-.4326172.0449219-1.2958984.1347656-1.7636719-.2700195-1.8359375.4047852-3.8164062.2250977-5.6513672,0-.5400391.5400391-1.4404297.6748047-2.0878906.3598633-.2880859-.1347656-.5400391-.5400391-.5761719-.9897461Z"/>
    <path class="cls-1" d="M486.4605356,38.8473413c-.0722656-1.3046875-1.7998047-3.1499023-1.9443359-4.5898438l-1.6552734-3.6899414c-.1083984-.5400391-.3603516-.8095703-.5761719-1.3496094-.0712891-.1352539-.0361328-.3603516-.2158203-.4501953-.6835938-.449707-1.1513672-.5849609-1.7636719-1.125,0-.0449219-.1435547-.1347656-.1796875-.1347656-.2167969-.0449219-1.0078125-.3149414-1.1523438-.3603516h-.3242188c-1.0078125.090332-1.3671875.090332-2.2314453,0-.3955078-.0449219-1.3681641-.0449219-1.3681641,0l-.2871094.9902344v5.9848633c.0351562.2250977.1796875,1.4399414.1796875,1.7099609.0722656.8549805-.0722656.9897461.6123047,1.3496094,1.0429688-.0449219,2.4111328-.0898438,3.4912109.090332.3242188.2246094.4677734,1.0795898.5039062,1.2597656.2880859,1.1699219-.3964844,1.8901367-1.2597656,1.9350586h-2.1601562c-.1435547,0-1.1513672-.2250977-1.2958984-.2700195-.7197266-.0898438-1.1875.4047852-1.9433594.1347656h-3.7080078c-1.1875.7202148-1.6552734-1.6196289-.7910156-2.4296875.5039062-.4501953,3.1669922-.3598633,3.5273438-1.125.0361328-1.2597656-.2158203-2.6098633-.1083984-3.8701172.1445312-1.7094727.2519531-3.4194336.3242188-5.1743164v-.5854492c-.1445312-1.3945312.0361328-2.7446289,0-4.1396484-.0361328-.0898438-.1083984-.7651367-.1083984-.8549805v-2.2045898c-.2158203-.5854492-.2158203-1.3051758-.2158203-1.9799805.0361328-.4052734.1796875-2.4750977.2158203-2.925293-.0361328-.4047852-.0712891-.8999023-.3955078-1.2148438-.828125-.6748047-2.015625.1801758-2.8076172-.449707-.5761719-.4951172-.5400391-1.215332-.5039062-1.9799805.1435547-2.4301758,5.1113281-.1352539,6.1552734-.8549805h1.8359375c.0712891,0,.3232422-.0898438.3955078-.1352539h3.2392578c.46875-.3598633,1.0439453-.0449219,1.5478516,0,2.1240234.2700195,3.3837891,1.215332,5.0751953,2.5649414.2880859.2250977.6123047.9453125.9003906,1.2602539.1083984.3149414.7197266,1.8447266.8642578,2.159668.1435547.4052734.0712891.2250977.1074219.4951172.1445312,2.5200195-.0722656,4.3647461-1.4755859,6.3447266-.1435547.2700195-.9716797,1.1699219-1.1875,1.3500977-.2519531.0898438-2.5917969,1.4848633-2.6279297,1.574707,1.6201172,1.8901367,3.1318359,3.9150391,4.1035156,6.3447266.6474609,1.6201172,1.1513672,3.1948242,2.2675781,4.4550781.6835938.7646484,1.9433594.8095703,2.8076172.7197266.3603516-.0449219.2880859-.3149414.6835938-.1347656.3964844.1347656.6484375.9897461.6845703,1.4399414.0351562.8095703,0,1.2597656-.5761719,1.6196289-1.4394531.8100586-2.6640625.9448242-4.1757812.5849609-.9355469-.1796875-1.9433594-1.4848633-2.4833984-2.3398438ZM475.9136606,24.4928491c1.6923828-.2700195,3.1318359-.0898438,4.8955078-.1796875.4677734-.090332,1.2958984-.2250977,1.7636719-.4501953.4677734-.2700195,2.015625-1.9799805,2.1601562-2.699707,0-.1352539.1435547-1.1699219.1796875-1.3500977.5039062-2.9697266-.9003906-4.6347656-2.9521484-5.7148438-1.4394531-.8100586-3.3828125-.449707-4.859375-.4047852-.6474609.0449219-1.4033203-.0449219-1.9433594.4047852-.2158203,1.2148438-.6123047,2.7900391-.3242188,4.0498047v4.8598633c0,.2700195.1806641,1.2148438.3964844,1.3051758.2158203.1347656.4677734.1796875.6835938.1796875Z"/>
    <path class="cls-1" d="M494.8853403,37.8575952h2.4111328c.4326172-.2250977,1.3681641-.090332,1.4765625-.8549805.1435547-1.125.2519531-2.2949219.1796875-3.4199219-.0361328-.8100586-.1445312-.8999023-.0722656-1.6201172,0-.1796875.1445312-1.9350586.1806641-2.2045898.0351562-.1352539.0351562-.8100586,0-.9453125-.0361328-.6298828.0712891-1.2597656,0-1.8447266-.2880859-2.7900391-.2529297-5.7148438-.1083984-8.5498047,0-.1796875.1796875-1.8447266.1796875-2.0698242.0361328-.2700195-.1796875-1.5297852-.359375-1.574707-.9003906-.1801758-1.9082031-.1801758-2.7363281-.1352539-1.1513672-.4951172-1.1152344-3.2397461.1806641-3.5097656,1.0439453-.2700195,2.1953125.3149414,3.2392578.3149414h2.6279297c.1435547.1347656,5.9746094.1801758,6.2626953-.0898438,1.5839844.7197266,4.2832031,0,5.9394531.0898438.7197266-.3149414.6835938-.1801758,1.3681641-.0898438,2.7353516.3598633,1.7998047,2.4296875,2.5556641,4.9946289.0361328.1347656.4677734,1.2597656.5751953,1.574707.5761719,1.4853516.46875,2.2949219-.9716797,2.0703125-.6835938-.090332-.8994141-.9453125-1.1513672-1.5751953-.1445312-.3149414-.7558594-1.7548828-.9003906-2.0698242-.2880859-.0898438-.8994141-.8999023-1.3671875-1.125-.3242188-.1347656-1.1523438-.4047852-1.4765625-.3598633-.3955078.0898438-.6474609.2700195-1.0791016.1347656-.0361328,0-.3242188-.2246094-.3964844-.2246094-.0722656-.0454102-.5400391-.0454102-.6474609,0-.2167969.0449219-1.0800781.1796875-1.2958984.2246094l-.1806641-.1347656c-.0712891,0-1.0791016-.0898438-1.4755859-.0898438-.7558594,0-1.3320312.2695312-2.0517578,0h-2.4472656c-.3242188.2246094-.828125-.0454102-1.0439453.449707-.5761719,1.2148438-.2880859,2.9248047-.6123047,4.1850586-.0712891.2246094.0722656.449707.2158203.5849609.0361328.449707.1806641,1.6645508.1806641,2.2045898,0,.2700195-.2880859,1.3950195-.1806641,1.7099609.1806641.7651367,1.9804688.090332,2.5205078.3598633h2.2675781l.2880859-.3598633.3955078-2.6547852c.0361328-.3149414.3603516-.5849609.5761719-.6298828,2.7714844-.5400391,1.9072266,2.5649414,1.8359375,4.8598633v2.9248047c.0351562.8549805.4316406,2.0249023-.2880859,2.6098633-.6484375.2250977-1.65625.0898438-1.9443359-.8549805-.3232422-1.0800781.2158203-1.9799805-.5751953-2.8349609-1.1162109.0898438-1.5478516-.0898438-2.5556641-.2250977-.6484375-.0898438-1.3681641.1352539-2.0517578.1352539-.6484375.2250977-.9365234,1.7099609-.6845703,2.4296875.0722656,1.7548828-.1435547,2.9248047.2158203,4.6347656,0,.1352539-.0712891.4501953-.1074219.4951172v2.5649414c0,.4047852.8994141.1347656,1.0800781.3598633.7558594.1801758,1.4394531.6298828,2.1591797.2250977h8.9628906c.2158203-.5849609,1.0078125-1.7998047,1.3681641-2.1601562l1.2958984-2.8344727c.2158203-1.1699219.6474609-2.0249023,1.6552734-1.9350586.8642578.0898438.8642578.3149414.7558594,1.4399414-.0712891.9897461-.2158203,1.9350586-.4677734,2.8349609l-.3955078,4.7246094c-.0361328.4501953-.2880859.8999023-.6123047.9902344-.2158203.0449219-1.2958984.2246094-1.5478516.2700195h-.1796875c-.3603516-.0454102-2.015625-.1352539-2.3398438-.1352539-.4677734-.2700195-.9003906.0449219-1.3681641,0-1.1875-.0898438-2.375-.0898438-3.5273438-.3598633h-5.0751953c-.6835938.1796875-1.0078125-.0898438-1.5839844,0-2.2675781.4047852-4.6435547.4047852-6.9111328.5849609-.4677734.0449219-.5400391.0449219-1.0078125-.3598633-.3242188-.3149414-.0722656-3.1499023.828125-3.1499023Z"/>
  </g>
  <g>
    <path class="cls-1" d="M186.5747934,88.5197046l-9.6181641-36.7495117h7.0561523l8.3579102,32.5493164h-3.527832l8.7358398-32.5493164h6.300293l8.3999023,32.5493164h-3.4018555l8.5678711-32.5493164h6.5097656l-9.6176758,36.7495117h-7.3081055l-7.434082-28.5595703h1.9321289l-7.644043,28.5595703h-7.3081055Z"/>
    <path class="cls-1" d="M241.006434,81.6945093h16.0019531v6.8251953h-22.7641602v-36.7495117h22.2182617v6.824707h-15.4560547v23.0996094ZM240.5025278,66.5753686h14.1538086v6.6142578h-14.1538086v-6.6142578Z"/>
    <path class="cls-1" d="M268.9361215,88.5197046v-36.7495117h14.3642578c3.6953125,0,6.4746094.8754883,8.3369141,2.6245117,1.8613281,1.7509766,2.7929688,4.0605469,2.7929688,6.9306641,0,1.9248047-.3779297,3.5957031-1.1337891,5.0136719-.7568359,1.4169922-1.7929688,2.5117188-3.1083984,3.28125-1.3164062.7695312-2.828125,1.1542969-4.5361328,1.1542969l.7978516-2.1523438c1.8486328,0,3.4863281.3769531,4.9140625,1.1289062,1.4277344.7529297,2.5410156,1.8642578,3.3388672,3.3339844s1.1972656,3.2724609,1.1972656,5.4072266c0,3.1503906-.9941406,5.609375-2.9824219,7.3759766-1.9882812,1.7685547-4.9130859,2.6513672-8.7773438,2.6513672h-15.2041016ZM275.6983286,82.1154077h7.9379883c1.7636719,0,3.1005859-.359375,4.0107422-1.0771484.9091797-.7167969,1.3652344-1.8632812,1.3652344-3.4384766,0-1.5400391-.4560547-2.6855469-1.3652344-3.4384766-.9101562-.7519531-2.2470703-1.1289062-4.0107422-1.1289062h-8.4418945v-6.1953125h7.2651367c1.6523438,0,2.9199219-.3583984,3.8017578-1.0761719.8818359-.7167969,1.3222656-1.8105469,1.3222656-3.28125,0-1.4345703-.4404297-2.5107422-1.3222656-3.2285156-.8818359-.7167969-2.1494141-1.0761719-3.8017578-1.0761719h-6.7612305v23.9404297Z"/>
    <path class="cls-1" d="M335.631434,89.1495874c-2.3515625,0-4.6064453-.3935547-6.7617188-1.1806641-2.15625-.7880859-3.8925781-1.8115234-5.2080078-3.0712891l2.3095703-6.4052734c1.2607422,1.1210938,2.7509766,2.0390625,4.4736328,2.7558594,1.7216797.7177734,3.4648438,1.0771484,5.2285156,1.0771484,1.3447266,0,2.4287109-.1660156,3.2548828-.4990234.8261719-.3320312,1.4345703-.7958984,1.8271484-1.3916016.3916016-.5947266.5878906-1.2773438.5878906-2.046875,0-.9794922-.3076172-1.7587891-.9238281-2.3369141-.6162109-.5771484-1.4277344-1.0498047-2.4355469-1.4169922-1.0078125-.3681641-2.1210938-.7167969-3.3388672-1.0498047-1.21875-.3330078-2.4365234-.7441406-3.6542969-1.234375-1.2177734-.4892578-2.3310547-1.1191406-3.3388672-1.8896484-1.0078125-.7695312-1.8271484-1.7851562-2.4570312-3.0449219-.6298828-1.2607422-.9453125-2.8701172-.9453125-4.8300781,0-2.1005859.4550781-4.0166016,1.3652344-5.7490234.9091797-1.7324219,2.28125-3.1142578,4.1162109-4.1469727,1.8330078-1.0322266,4.1367188-1.5488281,6.9082031-1.5488281,1.8486328,0,3.6679688.2714844,5.4599609.8134766,1.7919922.5429688,3.3740234,1.3569336,4.7460938,2.440918l-2.0996094,6.4580078c-1.3720703-.9794922-2.7441406-1.7060547-4.1162109-2.1787109s-2.7158203-.7089844-4.0322266-.7089844-2.3935547.1923828-3.2333984.5771484c-.8398438.3857422-1.4423828.8847656-1.8066406,1.4960938-.3632812.6132812-.5458984,1.3222656-.5458984,2.1269531,0,.9443359.3085938,1.7060547.9248047,2.2832031.6152344.578125,1.4277344,1.0419922,2.4355469,1.3916016,1.0078125.3505859,2.1210938.7001953,3.3388672,1.0498047,1.2177734.3505859,2.4365234.7529297,3.6542969,1.2080078s2.3310547,1.0673828,3.3388672,1.8369141c1.0078125.7705078,1.8271484,1.7851562,2.4570312,3.0449219.6298828,1.2607422.9453125,2.8535156.9453125,4.7773438,0,2.0664062-.4619141,3.9560547-1.3867188,5.6708984-.9238281,1.7148438-2.3027344,3.0966797-4.1367188,4.1474609-1.8339844,1.0498047-4.1513672,1.5742188-6.9511719,1.5742188Z"/>
    <path class="cls-1" d="M364.9468637,88.5197046v-29.8193359h-9.4082031v-6.9301758h25.6201172v6.9301758h-9.4082031v29.8193359h-6.8037109Z"/>
    <path class="cls-1" d="M403.881434,89.1495874c-4.171875,0-7.4335938-1.4511719-9.7851562-4.3574219-2.3525391-2.9042969-3.5283203-7.0517578-3.5283203-12.4423828v-20.5795898h6.8037109v20.2651367c0,3.5.5732422,6.0195312,1.7216797,7.5595703,1.1484375,1.5410156,2.7578125,2.3095703,4.8300781,2.3095703s3.6816406-.7685547,4.8300781-2.3095703c1.1484375-1.5400391,1.7226562-4.0595703,1.7226562-7.5595703v-20.2651367h6.7197266v20.5795898c0,5.390625-1.1757812,9.5380859-3.5283203,12.4423828-2.3515625,2.90625-5.6142578,4.3574219-9.7861328,4.3574219Z"/>
    <path class="cls-1" d="M430.4253794,88.5197046v-36.7495117h13.3554688c3.1923828,0,6.0068359.7612305,8.4423828,2.2836914,2.4365234,1.5224609,4.3398438,3.6484375,5.7119141,6.3789062,1.3710938,2.7294922,2.0585938,5.9677734,2.0585938,9.7119141,0,3.7109375-.6875,6.9394531-2.0585938,9.6865234-1.3720703,2.7480469-3.2753906,4.8828125-5.7119141,6.4052734-2.4355469,1.5224609-5.25,2.2832031-8.4423828,2.2832031h-13.3554688ZM437.2290903,81.5372827h6.2158203c1.9599609,0,3.6611328-.4628906,5.1035156-1.390625,1.4414062-.9277344,2.5615234-2.2490234,3.3603516-3.9638672.7978516-1.7148438,1.1962891-3.7275391,1.1962891-6.0380859,0-2.34375-.3984375-4.3652344-1.1962891-6.0634766-.7988281-1.6972656-1.9189453-3.0097656-3.3603516-3.9375-1.4423828-.9267578-3.1435547-1.3916016-5.1035156-1.3916016h-6.2158203v22.7851562Z"/>
    <path class="cls-1" d="M471.6275278,88.5197046v-36.7495117h6.8037109v36.7495117h-6.8037109Z"/>
    <path class="cls-1" d="M506.1919809,89.1495874c-2.3242188,0-4.4726562-.4716797-6.4462891-1.4169922-1.9746094-.9453125-3.6826172-2.2744141-5.1240234-3.9902344-1.4423828-1.7148438-2.5625-3.7275391-3.3603516-6.0371094-.7978516-2.3105469-1.1972656-4.8300781-1.1972656-7.5605469,0-2.7294922.3994141-5.25,1.1972656-7.5595703.7978516-2.3105469,1.9248047-4.3222656,3.3808594-6.0380859,1.4560547-1.7138672,3.1640625-3.0449219,5.1240234-3.9892578,1.9599609-.9453125,4.0878906-1.4174805,6.3837891-1.4174805,2.3242188,0,4.4589844.472168,6.4052734,1.4174805,1.9462891.9443359,3.6396484,2.2753906,5.0820312,3.9892578,1.4414062,1.7158203,2.5683594,3.7197266,3.3808594,6.0117188.8115234,2.2929688,1.2177734,4.8212891,1.2177734,7.5859375,0,2.7304688-.40625,5.2587891-1.2177734,7.5869141-.8125,2.3271484-1.9394531,4.3398438-3.3808594,6.0371094-1.4423828,1.6982422-3.1357422,3.0185547-5.0820312,3.9638672s-4.0673828,1.4169922-6.3632812,1.4169922ZM506.1499887,81.9044702c1.3164062,0,2.5273438-.2792969,3.6337891-.8398438,1.1054688-.5595703,2.078125-1.3642578,2.9189453-2.4150391.8398438-1.0498047,1.4902344-2.2919922,1.9521484-3.7275391.4628906-1.4345703.6933594-3.0263672.6933594-4.7773438,0-1.7490234-.2304688-3.3417969-.6933594-4.7773438-.4619141-1.4345703-1.1054688-2.6777344-1.9316406-3.7275391s-1.7988281-1.8544922-2.9189453-2.4150391c-1.1201172-.5595703-2.3378906-.8398438-3.6542969-.8398438s-2.5263672.2802734-3.6328125.8398438c-1.1064453.5605469-2.0791016,1.3652344-2.9189453,2.4150391s-1.4912109,2.2929688-1.953125,3.7275391c-.4619141,1.4355469-.6923828,3.0283203-.6923828,4.7773438,0,1.7158203.2304688,3.2998047.6923828,4.7519531s1.1064453,2.703125,1.9326172,3.7529297c.8251953,1.0507812,1.7988281,1.8554688,2.9189453,2.4150391,1.1191406.5605469,2.3369141.8398438,3.6533203.8398438Z"/>
  </g>
</svg>