<?xml version="1.0" encoding="UTF-8"?>
<svg id="Layer_1" data-name="Layer 1" xmlns="http://www.w3.org/2000/svg" viewBox="0 0 557.1309 102.4852324508">
  <defs>
    <style>
      .cls-1 {
        fill: #598158;
      }

      .cls-1, .cls-2 {
        stroke-width: 0px;
      }

      .cls-2 {
        fill: #dad8cd;
      }
    </style>
  </defs>
  <polygon class="cls-2" points="0 98 95.2725 0 176.5537 98 0 98"/>
  <polygon class="cls-1" points="95.4004 11.4844 162.8916 91.7852 130.9844 68.123 130.7539 87.8711 104.4649 35.4219 80.3389 62.0391 100.0137 26.6621 95.4004 11.4844"/>
  <g>
    <g>
      <path class="cls-2" d="M179.6052614707,39.8822051071c.0361328125-.2250976562.1801757812-1.169921875.1801757812-1.3500976562.3959960938-2.0698242188,3.8876953125.4501953125,4.03125-2.0698242188.0361328125-.4501953125.0361328125-1.169921875-.1079101562-1.6201171875v-8.4145507812c.1801757812-.4047851562.0361328125-.4951171875.1079101562-.9897460938.0361328125-.4052734375.1083984375-.2700195312.1801757812-.5849609375.1440429688-.5400390625-.1440429688-1.125-.1801757812-1.6201171875-.0717773438-.8549804688.072265625-1.8452148438.2880859375-2.6547851562.0361328125-.1352539062-.1079101562-1.169921875-.1079101562-1.2153320312.072265625-1.5297851562.4321289062-3.3745117188.1079101562-4.9047851562-.251953125-.1796875-.6479492188-.1796875-.8999023438-.224609375-.935546875-.3149414062-1.7998046875,0-2.8076171875-.4951171875-.2158203125-.1801757812-.3237304688-.4951171875-.3959960938-.7651367188-.0717773438-.9897460938-.1796875-2.33984375.8642578125-2.4296875,1.1875-.08984375,2.1596679688.2250976562,3.3471679688.2250976562,2.3037109375,0,3.16796875-.4052734375,3.7075195312,2.9697265625.072265625.5400390625.6123046875.7651367188.50390625,1.4848632812.2163085938.5400390625,1.2241210938,3.2846679688,1.4399414062,3.8701171875.5400390625,1.4848632812,1.1879882812,2.7895507812,1.8720703125,4.1396484375.0356445312.134765625.251953125.6748046875.2875976562.7651367188,0,.044921875.072265625.4497070312.072265625.4946289062.0717773438.1352539062.7197265625,1.3051757812.7919921875,1.4399414062.0356445312.044921875.1079101562.2250976562.1079101562.2250976562.0356445312.1801757812.251953125,1.125.2880859375,1.259765625.251953125.7651367188,2.1596679688,4.6801757812,1.943359375,5.3549804688l.50390625,1.080078125c.2163085938.08984375.5400390625.6298828125.6840820312.4951171875,1.0439453125-.7651367188,2.087890625-5.669921875,2.7358398438-5.9399414062.0717773438-.6748046875.3237304688-2.1147460938.8999023438-2.5649414062.1440429688-1.259765625.5756835938-2.294921875,1.0434570312-3.419921875.1801757812-.4497070312.3959960938-.7651367188.4682617188-1.259765625l1.2236328125-2.5200195312c.0361328125-.7202148438.2163085938-.6748046875.3598632812-1.259765625.0361328125-.0903320312.1801757812-.990234375.2163085938-1.080078125,0-.08984375.251953125-.4501953125.2875976562-.4951171875.576171875-1.080078125,1.15234375-4.2749023438,2.0517578125-5.0395507812.8642578125-.7202148438,1.6201171875-.0454101562,2.5200195312-.0903320312.935546875-.044921875,1.9794921875-.224609375,2.9516601562-.134765625,1.0795898438.08984375,1.2958984375,3.0146484375.2875976562,3.3295898438-.2875976562,0-1.5834960938.3603515625-1.8715820312.4501953125-.5756835938.2250976562-.8999023438.7197265625-.7919921875,1.4848632812l-.1796875.1352539062c0,.134765625-.072265625.9448242188-.072265625,1.0795898438-.1440429688.8549804688-.0356445312,1.3500976562,0,2.33984375v4.365234375c.251953125,1.259765625-.1079101562,2.4296875.072265625,3.689453125v4.5c-.1440429688.2250976562-.072265625.4951171875-.072265625.7651367188-.0356445312.3149414062-.1079101562,2.0698242188-.1079101562,2.4296875-.2158203125.5849609375-.1079101562.4052734375.2880859375.990234375.0361328125.044921875.1796875.2700195312.2158203125.3598632812,0,.044921875.072265625.4047851562.072265625.4951171875,0,0,.1435546875.08984375.1796875.08984375,1.763671875.7197265625,4.427734375-.3598632812,3.1318359375,3.3295898438-.6479492188.6752929688-4.1396484375.1801757812-5.18359375.2250976562-.1796875,0-1.763671875.0903320312-1.9438476562.0903320312-.7915039062.08984375-1.6196289062.26953125-2.4116210938.134765625-.8276367188-.08984375-1.0795898438-1.7998046875-.7197265625-2.4296875.1079101562-.1801757812.3959960938-.5849609375.3959960938-.6303710938h.3959960938c.4677734375-.044921875,2.267578125-.08984375,2.51953125-.5849609375.2158203125-.4047851562.3959960938-.6748046875.3959960938-1.0795898438.0361328125-.2250976562.0361328125-.990234375,0-1.125,0-.0903320312-.1801757812-.7651367188-.1801757812-.8549804688,0-.044921875.1079101562-.5400390625.1079101562-.5849609375.1083984375-1.7548828125.072265625-3.46484375.1801757812-5.1298828125.0361328125-.4501953125-.1440429688-.5400390625-.1079101562-1.125.1440429688-1.4399414062.251953125-2.6098632812.2158203125-4.1396484375-.2158203125-.2700195312-.1796875-2.5200195312-.2158203125-2.9252929688,0-.134765625-.072265625-.8999023438-.072265625-.9897460938-.0356445312-.1801757812-.0356445312-1.169921875,0-1.3500976562-.0356445312-.224609375-.50390625-.134765625-.50390625-.134765625,0,.044921875-1.5478515625,3.46484375-1.6557617188,3.8247070312-.0356445312.08984375-.251953125,1.169921875-.2875976562,1.3500976562-.3959960938,1.169921875-1.080078125,2.1147460938-1.4760742188,3.2397460938-.4321289062,1.3051757812-.755859375,2.8349609375-1.3676757812,4.0498046875-.0361328125.1352539062-.6118164062,1.125-.6840820312,1.21484375-.2880859375.5849609375-.2880859375,1.4848632812-.5756835938,2.115234375-.251953125.4946289062-.50390625.7197265625-.6840820312,1.21484375-.2158203125.7197265625-.8999023438,3.6450195312-1.259765625,4.0048828125l-.50390625,1.7099609375c-.072265625.2250976562-.32421875.3598632812-.4682617188.3598632812-.1435546875.044921875-.8637695312.044921875-1.0078125,0-.5395507812-.2250976562-.431640625-.9448242188-.5756835938-1.4399414062,0-.044921875-.1801757812-.3598632812-.1801757812-.3598632812-.0361328125-.0903320312-.1079101562-.2250976562-.1079101562-.2700195312-.0717773438-.1801757812-.4321289062-1.8901367188-.4677734375-2.0698242188-.072265625-.1801757812-.6479492188-1.5302734375-.7202148438-1.7099609375,0-.044921875-.0717773438-.4052734375-.0717773438-.4951171875-.1079101562-.9897460938-.3598632812-1.259765625-.7919921875-2.0698242188-.3959960938-.6752929688-.6479492188-2.16015625-.8999023438-2.8349609375-.0361328125-.1352539062-.3237304688-.8100585938-.3598632812-.9448242188-.0361328125-.044921875-.2880859375-.3149414062-.2880859375-.3603515625-.0717773438-.134765625-.2880859375-1.125-.3237304688-1.21484375-.2163085938-.7197265625-1.0439453125-1.8896484375-.8642578125-2.8349609375-.5756835938-.5849609375-.8994140625-1.5297851562-1.4755859375-2.0698242188-.0361328125-.1796875-.2158203125-1.0346679688-.2880859375-1.21484375-.0356445312-.1352539062-.3598632812-.8549804688-.3959960938-.9897460938-.2158203125-.7202148438.1079101562-.990234375-.68359375-.8549804688,0,0-.072265625.08984375-.072265625.134765625v3.2846679688c.1801757812.4501953125,0,2.8349609375,0,3.419921875-.0717773438,1.4848632812.1079101562,3.240234375.1801757812,4.6801757812-.1079101562.26953125-.2158203125.8095703125,0,1.0795898438v4.8598632812c0,.4052734375.50390625.6298828125.68359375.8999023438h2.16015625c.251953125,0,.6118164062.3603515625.6479492188.7202148438.2875976562,1.5747070312.50390625,2.8798828125-1.1518554688,2.7895507812-.6479492188,0-3.6357421875-.1796875-4.3198242188-.26953125-.5395507812-.2250976562-.6479492188,0-1.259765625.134765625-.0361328125.044921875-.50390625,0-.5756835938,0-.251953125.044921875-1.2241210938.134765625-1.3681640625.134765625-.50390625.0903320312-1.1518554688.4951171875-1.6557617188.1352539062-.3237304688-.2700195312-.431640625-.8100585938-.3959960938-1.21484375Z"/>
      <path class="cls-2" d="M221.0403200645,41.2772246383c-4.5717773438-2.16015625-7.451171875-7.5151367188-7.8110351562-13.4545898438-.072265625-.9448242188-.1440429688-2.294921875.2875976562-3.1499023438-.1079101562-2.6098632812.7202148438-5.2197265625,1.8720703125-7.3349609375.7919921875-1.5747070312,1.6918945312-3.0595703125,2.9155273438-4.1396484375.828125-.7651367188,1.7275390625-.8549804688,2.6274414062-1.259765625.9360351562-.4052734375,1.9438476562-.8999023438,2.9516601562-1.080078125h.3959960938c1.4038085938.2700195312,3.419921875-.08984375,4.7514648438.4951171875,1.259765625.5400390625,2.267578125.9897460938,3.5278320312,1.7099609375.0717773438,0,.251953125.1796875.2875976562.224609375.1440429688.1801757812,1.2602539062,1.4399414062,1.4038085938,1.5751953125.5400390625.6298828125,1.2958984375,1.169921875,1.7280273438,1.9799804688.1079101562.1796875.6479492188,1.3950195312.7919921875,1.7099609375,1.0795898438,2.7446289062,1.7275390625,5.5346679688,1.6557617188,8.6845703125-.0361328125.044921875-.1079101562.2700195312-.1079101562.3598632812-.072265625.3598632812-.4682617188,3.419921875-.576171875,3.7797851562-.6840820312,2.7001953125-1.8359375,4.8149414062-3.3115234375,6.83984375-1.259765625,1.7099609375-2.591796875,2.384765625-4.2114257812,3.5546875l-2.6279296875.8549804688c-.8999023438-.08984375-1.8715820312.2700195312-2.7353515625.0903320312-.576171875-.0903320312-2.1240234375-.4501953125-2.267578125-.4951171875-.6479492188-.1352539062-.9721679688-.6752929688-1.5478515625-.9448242188ZM224.0637575645,39.4320097946h3.0234375c1.4399414062-.7197265625,2.3759765625-.6298828125,3.7436523438-1.9799804688,1.583984375-1.5297851562,2.591796875-3.599609375,3.4194335938-5.849609375.3959960938-1.169921875.6479492188-1.5297851562.7563476562-2.7900390625.1796875-1.9799804688.1796875-3.0595703125,0-5.1298828125-.0361328125-.4497070312.0717773438-1.0346679688-.1083984375-1.4399414062-.6479492188-1.6645507812-1.5478515625-2.9697265625-2.4116210938-4.4545898438-.2880859375-.4047851562-.0717773438-.4951171875-.50390625-.8100585938-.0361328125,0-.1796875-.134765625-.2158203125-.134765625-1.1518554688-1.125-2.3037109375-1.7099609375-3.6713867188-2.33984375-.4682617188-.2250976562-.9360351562,0-1.404296875-.2250976562-2.8076171875-.08984375-4.3911132812.08984375-6.7309570312,1.8447265625-.6118164062.4501953125-.8999023438,1.6201171875-1.4755859375,2.205078125-.0361328125,0-.072265625.08984375-.1083984375.08984375-.4677734375,1.21484375-1.1157226562,2.4301757812-1.3315429688,3.8247070312-.0361328125.1801757812-.32421875,2.4750976562-.3959960938,3.240234375-.0717773438.7646484375.3237304688,1.7548828125,0,2.474609375,0,.2250976562.1440429688,1.3500976562.1801757812,1.5751953125.1435546875.9897460938.1435546875,2.2045898438.6118164062,3.0595703125,0,.0903320312.431640625.7651367188.4677734375.8549804688.1079101562.2250976562.6118164062,1.3500976562.6840820312,1.5751953125.5400390625.4497070312,1.0078125,1.080078125,1.4755859375,1.5747070312.9360351562,1.03515625,1.8720703125,1.6201171875,3.0239257812,2.205078125.1435546875.08984375.8276367188.5400390625.9716796875.6298828125Z"/>
      <path class="cls-2" d="M259.9538942832,41.4119902633c-1.0439453125-1.259765625-1.583984375-2.384765625-2.267578125-3.8696289062-.32421875-.7651367188-.8642578125-1.3950195312-1.259765625-2.115234375-.7563476562-1.3950195312-1.4760742188-3.0146484375-2.16015625-4.4995117188-.3237304688-.2700195312-1.6557617188-2.8349609375-1.7275390625-3.419921875l-1.0078125-1.5751953125c.1796875-.4047851562-2.1958007812-3.7797851562-2.4116210938-4.2749023438-.0361328125-.044921875-.1079101562-.4497070312-.1079101562-.4946289062s-.2880859375-.0903320312-.2880859375-.1352539062c-.0361328125,0-.1079101562-.08984375-.1079101562-.134765625-.072265625-.0903320312-.5400390625-1.21484375-.576171875-1.3500976562-.251953125-.4951171875-.755859375-.8999023438-.7197265625-1.5747070312l-1.0439453125-1.7099609375c-.0361328125-.2250976562-.50390625-1.3500976562-.7919921875-1.080078125-.1079101562.08984375-.2880859375.3149414062-.2880859375.3598632812v1.6201171875l-.1079101562.2250976562v2.6997070312c-.1796875.4951171875-.1079101562.9448242188,0,1.4399414062.1079101562.3598632812-.1796875.6748046875-.1796875.9448242188,0,.990234375.5395507812,3.6000976562.1796875,4.1850585938v1.7099609375c.0361328125.134765625.1801757812.5400390625.1079101562.7197265625,0,.044921875-.2158203125.4501953125-.2158203125.4951171875-.0717773438.8100585938.1440429688,1.6650390625.2158203125,2.4296875v1.2602539062c-.0356445312.8100585938-.2158203125,3.1049804688,0,3.7797851562.32421875.9897460938,2.591796875-.3598632812,3.2036132812,1.080078125.32421875.7197265625.576171875,2.5649414062-.4677734375,2.6997070312h-.7919921875c-.0361328125-.044921875-.50390625-.134765625-.5756835938-.134765625-.7202148438-.0903320312-3.0239257812-.2250976562-3.3120117188-.2250976562-1.2236328125-.044921875-2.5556640625.5400390625-3.7431640625.3598632812-1.080078125-.1801757812-.8642578125-3.2846679688-.1801757812-3.2846679688h2.33984375c.7919921875,0,1.0439453125-.9453125,1.0795898438-1.7553710938.0361328125-.3598632812.0361328125-2.1596679688,0-2.51953125-.251953125-.6298828125.0361328125-.9453125.1083984375-1.6201171875v-1.7099609375c0-.3598632812-.072265625-1.9350585938-.1083984375-2.294921875.2163085938-.4047851562.0361328125-.7646484375.1083984375-1.21484375.0356445312-.2700195312.2158203125-1.4848632812.2875976562-1.7548828125-.0356445312,0-.1079101562-.1801757812-.1079101562-.2250976562-.0361328125-.2250976562-.0717773438-.9448242188-.0717773438-1.080078125v-7.2446289062c.1440429688-.5400390625.1440429688-1.5747070312-.32421875-1.9345703125-.7919921875-.2250976562-3.0234375-.0454101562-3.3115234375-1.2153320312-.0361328125-.9897460938-.2158203125-2.384765625.7919921875-2.4296875,1.1879882812-.08984375,2.3754882812.1796875,3.599609375.08984375.50390625,0,1.9794921875-.3598632812,2.4477539062-.2250976562,1.1518554688.3149414062,1.439453125,1.2153320312,2.0517578125,2.4301757812.2158203125.4047851562,1.259765625,2.294921875,1.4755859375,2.6997070312.072265625.8100585938.3959960938,1.03515625.755859375,1.7099609375.072265625.08984375.4321289062.990234375.50390625,1.080078125.1440429688.2700195312.6840820312.6298828125.6840820312,1.125l2.4477539062,4.76953125c.0361328125.1801757812.9360351562,1.4853515625,1.1879882812,1.7099609375,0,0,.3237304688.1801757812.3598632812.2250976562.0356445312.044921875.1079101562.5849609375.1079101562.5849609375.50390625,1.4399414062,1.3676757812,2.6098632812,1.9438476562,3.9150390625.0717773438.134765625.431640625,1.259765625.50390625,1.349609375.2158203125.4501953125,1.1518554688,2.115234375,1.6557617188,1.9799804688.2880859375-.7197265625.251953125-1.8447265625.1796875-2.5649414062.251953125-.08984375,0-1.21484375,0-1.259765625v-1.6650390625c0-.1796875.1083984375-1.3500976562.1083984375-1.4848632812.0356445312-.08984375.0356445312-.4501953125,0-.4951171875,0-.08984375-.1801757812-.7646484375-.1801757812-.8549804688v-.08984375c0-.08984375.0717773438-.6748046875.0717773438-.7651367188.0361328125-.4047851562.0361328125-2.2495117188,0-2.6547851562.2880859375-.9448242188,0-2.8349609375,0-3.6899414062.072265625-1.169921875.072265625-2.0698242188,0-3.2846679688,0-.1352539062.072265625-.8549804688-.251953125-.7202148438-.0356445312,0-.2158203125.2250976562-.2158203125.2250976562-.0361328125,0-.251953125-.134765625-.2880859375-.134765625-.1796875-.044921875-1.0795898438-.1801757812-1.259765625-.2250976562-.3237304688-.4501953125-.8637695312-.3149414062-1.1879882812-.4951171875-.7197265625-.3598632812-.7915039062-3.2846679688,0-3.2846679688h2.4477539062c.2880859375.1796875.8642578125.2250976562,1.080078125.2250976562h2.2314453125c.1083984375,0,1.1518554688-.1352539062,1.2602539062-.1352539062h1.4038085938c1.1157226562.08984375.8637695312,1.6201171875.6479492188,2.5649414062-.3603515625,1.8447265625-3.3837890625.4501953125-3.3837890625,2.1147460938v2.5649414062c.1801757812.6298828125-.1079101562,1.5302734375-.1440429688,2.205078125.1440429688.2250976562.1440429688.3598632812,0,.5849609375l-.0361328125,5.2646484375v.4951171875c-.0356445312,1.080078125-.1079101562,6.2998046875-.1435546875,7.4248046875-.0361328125,1.4399414062.68359375,6.7495117188-.3959960938,7.8295898438-.50390625.134765625-1.0439453125.1801757812-1.5478515625,0-.0361328125-.044921875-.251953125-.2250976562-.2880859375-.2700195312Z"/>
      <path class="cls-2" d="M271.0085817832,38.3973418258c.1079101562-1.03515625.251953125-1.8002929688,1.1513671875-1.8452148438h1.4760742188c.3598632812,0,1.4755859375-.08984375,1.583984375-.08984375.0356445312-.044921875.50390625-.2700195312.6479492188-.4052734375.0356445312,0,.1079101562-.08984375.1079101562-.134765625-.072265625-.7651367188.1796875-1.259765625.3237304688-2.0698242188,0-.1801757812-.0717773438-.2700195312-.1079101562-.4501953125-.1079101562-.8999023438.1440429688-3.2397460938,0-3.5546875-.1801757812-1.6650390625.0361328125-3.1499023438,0-4.7700195312-.0717773438-1.349609375-.2880859375-2.7446289062.1079101562-4.0048828125v-6.0297851562c0-.134765625.0361328125-.8095703125.072265625-.9448242188.0356445312-.3149414062.0356445312-.9897460938,0-.9897460938l-.2880859375-.1352539062c-.3959960938,0-2.33984375-.08984375-2.7358398438-.08984375-1.1518554688-.08984375-2.1596679688.044921875-3.34765625,0l-.8276367188,1.080078125-.2158203125,3.1948242188c-.1083984375,1.4848632812-1.2241210938,1.9350585938-2.2319335938,1.5747070312-.1801757812-.2250976562-.251953125-.4497070312-.3237304688-.7646484375-.1440429688-.8100585938.251953125-1.7099609375.3237304688-2.5200195312,0-.5400390625.1079101562-1.4848632812.0717773438-2.0698242188-.0717773438-1.2602539062-.4677734375-3.1948242188.7919921875-3.6899414062,1.7998046875-.044921875,3.7436523438-.1352539062,5.5434570312.2700195312.1440429688,0,.2158203125-.044921875.3237304688-.1352539062,4.8955078125.2250976562,9.6831054688-.7197265625,14.5424804688-.4946289062.5400390625.044921875.6484375.8095703125.7919921875,1.349609375-.0361328125,1.2602539062-.072265625,3.375.072265625,4.7700195312.107421875.7651367188.7197265625,2.5200195312-.1806640625,3.1499023438-.5751953125.044921875-1.3671875.2250976562-1.763671875-.4501953125-.3232421875-1.3950195312-.2158203125-2.9248046875-.3955078125-4.3198242188-.072265625-.1796875-.072265625-.5849609375-.2880859375-.7197265625-1.080078125-.8100585938-2.447265625-.4052734375-3.599609375-.3603515625h-3.419921875c-.0717773438.2250976562-.251953125,1.2153320312-.3237304688,1.4853515625v.4946289062c.0361328125.1352539062.2158203125,1.4853515625.2158203125,1.6650390625.0361328125.3149414062-.0717773438.5849609375-.0717773438.8549804688v.1352539062c0,.1796875.0717773438,1.4399414062.0717773438,1.5747070312v1.4848632812c0,.044921875.072265625.3149414062.1079101562.3598632812.1440429688,2.25.3603515625,4.8149414062,0,7.1098632812-.0717773438.3598632812.072265625,1.21484375.072265625,1.5751953125.0717773438,2.0698242188-.0361328125,4.0498046875,0,6.1196289062.4677734375,1.5747070312,3.7080078125-.4501953125,4.8232421875,1.169921875.14453125.2700195312.14453125.8100585938.1806640625.9897460938.287109375,1.7099609375-.46875,2.205078125-1.763671875,2.115234375-.3603515625-.044921875-3.4204101562-.3603515625-3.81640625-.4052734375-1.6196289062-.08984375-3.34765625.044921875-4.9672851562.2700195312-.7919921875.0903320312-1.4038085938.3603515625-2.1596679688,0-.50390625-.2250976562-.6479492188-.7197265625-.5756835938-1.349609375Z"/>
      <path class="cls-2" d="M290.053015377,37.5423613571h1.5478515625c.431640625,0,.6474609375.2700195312.9716796875,0,.8994140625-.7651367188,1.0078125-2.5649414062,1.4033203125-3.6899414062.755859375-2.205078125,1.583984375-4.3647460938,2.412109375-6.5698242188.072265625-.1801757812.50390625-1.5297851562.576171875-1.7099609375.03515625-.08984375.1796875-.3149414062.2158203125-.3598632812l2.447265625-7.3349609375c.251953125-1.259765625.68359375-2.33984375,1.080078125-3.5546875.5400390625-1.7548828125,1.259765625-4.7700195312,3.3115234375-4.1396484375.1796875.044921875.828125.4497070312.9716796875.5849609375.251953125.4946289062.828125,1.5747070312.7919921875,2.33984375.68359375,1.3046875,1.15234375,2.8798828125,1.439453125,4.4096679688.5048828125.7651367188.576171875,1.6201171875.7919921875,2.5649414062.1083984375.4047851562.1083984375.08984375.2880859375.4951171875.072265625.08984375.251953125.8999023438.2880859375,1.0795898438.0361328125.1352539062.2880859375,1.080078125.2880859375,1.2153320312.1435546875.4047851562.3955078125.7197265625.50390625,1.125.2880859375,1.1245117188.50390625,2.51953125.9716796875,3.509765625.0361328125.08984375.396484375.5400390625.396484375.6298828125.0361328125.08984375.1796875.8549804688.1796875.9448242188.32421875,1.21484375.935546875,2.205078125,1.404296875,3.330078125.1435546875.4497070312.8994140625,2.474609375,1.04296875,2.9248046875-.0712890625.4497070312.32421875.9448242188.396484375,1.3500976562.0361328125,0,0,.3149414062,0,.3598632812.3955078125,1.169921875,2.771484375.134765625,3.2392578125,1.080078125,0,.08984375.072265625.3149414062.072265625.4047851562.2158203125,1.3950195312.2158203125,2.205078125-.8642578125,2.7900390625-2.33984375.08984375-4.607421875-.4951171875-6.947265625-.3603515625-1.943359375.0903320312-3.0947265625,1.4853515625-3.3115234375-1.8447265625-.03515625-.6748046875.4326171875-1.259765625.900390625-1.5747070312,1.4033203125-.0903320312,3.095703125,1.169921875,2.9150390625-1.4853515625-.107421875-.3598632812-.5751953125-2.0698242188-.68359375-2.4296875-.0361328125-.044921875-.072265625-.2250976562-.072265625-.2700195312-.3955078125-.6748046875-.5390625-1.9350585938-1.294921875-2.1596679688h-.5048828125c-.0712890625,0-.3955078125-.0903320312-.4677734375-.1352539062h-7.234375c-1.4765625,0-1.8359375,1.3500976562-2.4482421875,2.6997070312-.4677734375,1.03515625-.828125,1.9799804688-1.080078125,3.1953125.1806640625.224609375.251953125.5849609375.50390625.8095703125.755859375-.08984375,1.9443359375-.08984375,2.6279296875.4951171875,0,0,.072265625.1801757812.1083984375.2700195312.107421875.3149414062.359375,1.169921875.2880859375,1.5751953125-.1806640625,1.259765625-1.728515625,1.6196289062-2.4482421875.9448242188-.1796875.044921875-.8994140625.044921875-1.080078125,0-.0361328125,0-.251953125-.0903320312-.2880859375-.0903320312h-.4677734375c-.3955078125,0-2.267578125.1801757812-2.6630859375.2250976562,0,.044921875-.14453125.1352539062-.1806640625.1352539062-.68359375.134765625-1.5830078125.134765625-2.2314453125.134765625-.0361328125-.044921875-.1796875-.134765625-.2158203125-.134765625-.9716796875-.7202148438-1.1875-3.6450195312.1083984375-3.7797851562ZM306.9348513145,28.0023222946c.3232421875-.26953125.1435546875-1.0795898438,0-1.4399414062-.0361328125-.134765625-.5400390625-.9897460938-.576171875-1.1245117188-.072265625-.1801757812-.50390625-1.9799804688-.576171875-2.205078125-.0361328125-.1801757812-.6474609375-1.3950195312-.68359375-1.5751953125-.5400390625-1.39453125-.7919921875-3.3295898438-1.3681640625-4.634765625-.0361328125-.044921875-.2880859375-.3149414062-.2880859375-.4047851562-.0361328125,0,0-.4047851562,0-.4501953125-.0361328125-.044921875-.1435546875-.134765625-.2158203125-.134765625h-.107421875c-.720703125.6748046875-.8642578125,2.25-1.15234375,3.1948242188-.072265625.1801757812-.7197265625,1.8447265625-.7919921875,2.0698242188-.3955078125,1.169921875-.68359375,2.4301757812-1.0439453125,3.6450195312-.359375.9897460938-.68359375,1.8447265625-.611328125,2.9697265625.755859375-.08984375,1.5830078125.1801757812,2.3388671875.2250976562h2.33984375c.9365234375.044921875,1.7998046875.08984375,2.736328125-.1352539062Z"/>
      <path class="cls-2" d="M320.7239138145,36.7772246383c-.107421875-.1801757812-.4677734375-.6748046875-.50390625-.7202148438-.0712890625-.1796875-.86328125-1.7548828125-.9716796875-1.9345703125-.0361328125-.044921875-.1796875-.2250976562-.1796875-.2700195312-1.3681640625-3.1948242188-2.087890625-7.0200195312-1.3681640625-10.6196289062.14453125-.8100585938.431640625-2.25.755859375-3.0600585938.4677734375-1.0346679688.755859375-1.259765625,1.2958984375-2.2045898438.0361328125-.0454101562.251953125-.6303710938.2880859375-.7202148438,1.0439453125-2.0249023438,3.779296875-4.544921875,5.5791015625-5.2197265625.396484375.134765625.9365234375-.3598632812,1.259765625-.4951171875,2.087890625-.9448242188,4.6796875-1.349609375,6.83984375-.4946289062.3232421875.08984375,2.8076171875,1.21484375,3.130859375,1.349609375.14453125.044921875.6845703125.1801757812.8642578125.0903320312,0,0,.1435546875-.1801757812.2158203125-.2250976562.576171875-.9448242188,1.7275390625-1.4399414062,2.412109375-.2250976562.0361328125,1.259765625,0,2.0249023438-.072265625,3.419921875-.072265625,1.080078125.2158203125,2.1147460938,0,3.1499023438-.072265625.2250976562-.14453125.3598632812-.2880859375.3598632812-.32421875.044921875-.935546875.08984375-1.1875-.2250976562-.4326171875-.4946289062-.576171875-1.0346679688-.97265625-1.4848632812-.6474609375-.6748046875-1.294921875-1.259765625-1.87109375-2.0698242188-1.080078125.2250976562-2.015625-.7202148438-3.0234375-1.080078125-.216796875-.08984375-.46875.1801757812-.6845703125.1352539062-1.2958984375-.3603515625-1.87109375-.0903320312-3.203125.08984375-.50390625.4047851562-1.2958984375.4047851562-1.763671875.4951171875-.396484375.1796875-1.9443359375,1.3046875-2.267578125,1.5747070312-.1806640625.1801757812-1.583984375,1.7548828125-1.728515625,1.9799804688-.1435546875.08984375-.359375.2700195312-.50390625.3598632812-.4677734375.990234375-.755859375,1.6201171875-.8994140625,2.6547851562,0,.0454101562-.072265625.2250976562-.072265625.2700195312-.251953125.4501953125-.072265625,1.125-.3955078125,1.2153320312-.46875,2.51953125-.5400390625,4.58984375.2158203125,7.064453125,0,.08984375.3955078125.990234375.576171875,1.3500976562.287109375.6748046875-.1083984375.7197265625.1796875,1.125.6474609375.8999023438,1.3671875,1.9350585938,2.0517578125,2.7895507812.0361328125.0903320312.50390625.5849609375.576171875.6303710938.0712890625.08984375.431640625.4946289062.50390625.6298828125l2.8427734375,1.6650390625c.072265625.08984375.5400390625.224609375.6845703125.2700195312,3.1669921875.5395507812,5.36328125.1796875,7.9912109375-2.205078125.2158203125-.1801757812.68359375-.990234375.791015625-1.080078125.2529296875-.4047851562.1806640625-1.080078125.3603515625-1.5747070312.0361328125-.4501953125.0361328125-2.4301757812,0-2.8349609375-.0361328125-2.1147460938-1.4033203125-.8100585938-2.4111328125-1.7099609375-.1083984375-.08984375-.32421875-.3149414062-.32421875-.3598632812v-1.4853515625c0-1.1245117188,2.015625-.6298828125,2.5556640625-.5849609375h1.4755859375c.32421875-.044921875,1.8359375-.134765625,2.1240234375-.134765625,1.115234375-.7197265625,1.2236328125,1.259765625.7919921875,2.0698242188-.251953125.5400390625-.828125.9448242188-1.15234375,1.4399414062-.3955078125.6752929688-.2880859375,3.6000976562-.2158203125,4.544921875-.2158203125.2700195312-.2158203125,2.33984375-.1083984375,2.7900390625.0361328125.4047851562.0361328125,2.2045898438,0,2.6098632812-.03515625,1.3950195312-1.115234375,1.259765625-2.015625,1.169921875-.0361328125,0-.251953125-.2700195312-.3232421875-.3598632812-.0361328125-.0454101562-.1083984375-.2250976562-.1083984375-.2250976562v-1.7099609375h-.8642578125c-1.0791015625,1.4848632812-2.7353515625,2.474609375-4.283203125,2.9248046875-.431640625.08984375-.8994140625.044921875-1.2958984375.3598632812-.576171875-.044921875-1.1875.1801757812-1.7275390625.1352539062-.7919921875-.0903320312-2.8076171875-.3603515625-2.84375-.4052734375-2.2314453125-.5849609375-5.18359375-2.7895507812-6.7314453125-4.9946289062Z"/>
      <path class="cls-2" d="M364.281531002,41.4119902633c-1.0439453125-1.259765625-1.583984375-2.384765625-2.267578125-3.8696289062-.32421875-.7651367188-.8642578125-1.3950195312-1.259765625-2.115234375-.755859375-1.3950195312-1.4755859375-3.0146484375-2.16015625-4.4995117188-.3232421875-.2700195312-1.6552734375-2.8349609375-1.7275390625-3.419921875l-1.0078125-1.5751953125c.1796875-.4047851562-2.1953125-3.7797851562-2.4111328125-4.2749023438-.0361328125-.044921875-.1083984375-.4497070312-.1083984375-.4946289062s-.2880859375-.0903320312-.2880859375-.1352539062c-.0361328125,0-.107421875-.08984375-.107421875-.134765625-.072265625-.0903320312-.5400390625-1.21484375-.576171875-1.3500976562-.251953125-.4951171875-.755859375-.8999023438-.7197265625-1.5747070312l-1.0439453125-1.7099609375c-.0361328125-.2250976562-.50390625-1.3500976562-.7919921875-1.080078125-.1083984375.08984375-.2880859375.3149414062-.2880859375.3598632812v1.6201171875l-.1083984375.2250976562v2.6997070312c-.1796875.4951171875-.107421875.9448242188,0,1.4399414062.1083984375.3598632812-.1796875.6748046875-.1796875.9448242188,0,.990234375.5400390625,3.6000976562.1796875,4.1850585938v1.7099609375c.0361328125.134765625.1806640625.5400390625.1083984375.7197265625,0,.044921875-.2158203125.4501953125-.2158203125.4951171875-.072265625.8100585938.1435546875,1.6650390625.2158203125,2.4296875v1.2602539062c-.0361328125.8100585938-.2158203125,3.1049804688,0,3.7797851562.32421875.9897460938,2.591796875-.3598632812,3.203125,1.080078125.32421875.7197265625.576171875,2.5649414062-.4677734375,2.6997070312h-.7919921875c-.0361328125-.044921875-.50390625-.134765625-.5751953125-.134765625-.720703125-.0903320312-3.0244140625-.2250976562-3.3115234375-.2250976562-1.224609375-.044921875-2.556640625.5400390625-3.744140625.3598632812-1.080078125-.1801757812-.86328125-3.2846679688-.1796875-3.2846679688h2.33984375c.7919921875,0,1.0439453125-.9453125,1.0791015625-1.7553710938.0361328125-.3598632812.0361328125-2.1596679688,0-2.51953125-.251953125-.6298828125.0361328125-.9453125.1083984375-1.6201171875v-1.7099609375c0-.3598632812-.072265625-1.9350585938-.1083984375-2.294921875.216796875-.4047851562.0361328125-.7646484375.1083984375-1.21484375.0361328125-.2700195312.2158203125-1.4848632812.2880859375-1.7548828125-.0361328125,0-.1083984375-.1801757812-.1083984375-.2250976562-.0361328125-.2250976562-.0712890625-.9448242188-.0712890625-1.080078125v-7.2446289062c.1435546875-.5400390625.1435546875-1.5747070312-.32421875-1.9345703125-.7919921875-.2250976562-3.0234375-.0454101562-3.3115234375-1.2153320312-.0361328125-.9897460938-.2158203125-2.384765625.7919921875-2.4296875,1.1875-.08984375,2.375.1796875,3.599609375.08984375.50390625,0,1.9794921875-.3598632812,2.447265625-.2250976562,1.15234375.3149414062,1.439453125,1.2153320312,2.0517578125,2.4301757812.2158203125.4047851562,1.259765625,2.294921875,1.4755859375,2.6997070312.072265625.8100585938.396484375,1.03515625.755859375,1.7099609375.072265625.08984375.4326171875.990234375.50390625,1.080078125.14453125.2700195312.6845703125.6298828125.6845703125,1.125l2.447265625,4.76953125c.0361328125.1801757812.9365234375,1.4853515625,1.1884765625,1.7099609375,0,0,.3232421875.1801757812.359375.2250976562s.1083984375.5849609375.1083984375.5849609375c.50390625,1.4399414062,1.3671875,2.6098632812,1.943359375,3.9150390625.072265625.134765625.431640625,1.259765625.50390625,1.349609375.2158203125.4501953125,1.15234375,2.115234375,1.65625,1.9799804688.2880859375-.7197265625.251953125-1.8447265625.1796875-2.5649414062.251953125-.08984375,0-1.21484375,0-1.259765625v-1.6650390625c0-.1796875.1083984375-1.3500976562.1083984375-1.4848632812.03515625-.08984375.03515625-.4501953125,0-.4951171875,0-.08984375-.1806640625-.7646484375-.1806640625-.8549804688v-.08984375c0-.08984375.072265625-.6748046875.072265625-.7651367188.0361328125-.4047851562.0361328125-2.2495117188,0-2.6547851562.2880859375-.9448242188,0-2.8349609375,0-3.6899414062.072265625-1.169921875.072265625-2.0698242188,0-3.2846679688,0-.1352539062.072265625-.8549804688-.251953125-.7202148438-.0361328125,0-.2158203125.2250976562-.2158203125.2250976562-.0361328125,0-.251953125-.134765625-.2880859375-.134765625-.1796875-.044921875-1.080078125-.1801757812-1.259765625-.2250976562-.32421875-.4501953125-.8642578125-.3149414062-1.1884765625-.4951171875-.7197265625-.3598632812-.791015625-3.2846679688,0-3.2846679688h2.4482421875c.2880859375.1796875.8642578125.2250976562,1.080078125.2250976562h2.2314453125c.1083984375,0,1.1513671875-.1352539062,1.259765625-.1352539062h1.404296875c1.115234375.08984375.86328125,1.6201171875.6474609375,2.5649414062-.3603515625,1.8447265625-3.3837890625.4501953125-3.3837890625,2.1147460938v2.5649414062c.1806640625.6298828125-.107421875,1.5302734375-.1435546875,2.205078125.1435546875.2250976562.1435546875.3598632812,0,.5849609375l-.0361328125,5.2646484375v.4951171875c-.0361328125,1.080078125-.1083984375,6.2998046875-.1435546875,7.4248046875-.0361328125,1.4399414062.68359375,6.7495117188-.396484375,7.8295898438-.50390625.134765625-1.0439453125.1801757812-1.5478515625,0-.0361328125-.044921875-.251953125-.2250976562-.2880859375-.2700195312Z"/>
      <path class="cls-2" d="M371.736609127,37.8573027633h2.4111328125c.431640625-.2250976562,1.3681640625-.0903320312,1.4755859375-.8549804688.14453125-1.125.251953125-2.294921875.1806640625-3.419921875-.0361328125-.8100585938-.14453125-.8999023438-.072265625-1.6201171875,0-.1796875.1435546875-1.9350585938.1796875-2.2045898438.0361328125-.1352539062.0361328125-.8100585938,0-.9453125-.0361328125-.6298828125.072265625-1.259765625,0-1.8447265625-.2880859375-2.7900390625-.251953125-5.71484375-.107421875-8.5498046875,0-.1796875.1796875-1.8447265625.1796875-2.0698242188.0361328125-.2700195312-.1796875-1.5297851562-.3603515625-1.5747070312-.8994140625-.1801757812-1.9072265625-.1801757812-2.7353515625-.1352539062-1.1513671875-.4951171875-1.1162109375-3.2397460938.1796875-3.509765625,1.0439453125-.2700195312,2.1962890625.3149414062,3.240234375.3149414062h2.626953125c.14453125.134765625,5.9755859375.1801757812,6.263671875-.08984375,1.583984375.7197265625,4.283203125,0,5.939453125.08984375.7197265625-.3149414062.68359375-.1801757812,1.3671875-.08984375,2.736328125.3598632812,1.7998046875,2.4296875,2.5556640625,4.9946289062.0361328125.134765625.46875,1.259765625.576171875,1.5747070312.576171875,1.4853515625.4677734375,2.294921875-.9716796875,2.0703125-.68359375-.0903320312-.8994140625-.9453125-1.15234375-1.5751953125-.1435546875-.3149414062-.755859375-1.7548828125-.8994140625-2.0698242188-.2880859375-.08984375-.8994140625-.8999023438-1.3681640625-1.125-.3232421875-.134765625-1.1513671875-.4047851562-1.4755859375-.3598632812-.3955078125.08984375-.6474609375.2700195312-1.080078125.134765625-.0361328125,0-.3232421875-.224609375-.3955078125-.224609375-.072265625-.0454101562-.5400390625-.0454101562-.6484375,0-.2158203125.044921875-1.0791015625.1796875-1.2958984375.224609375l-.1796875-.134765625c-.072265625,0-1.080078125-.08984375-1.4755859375-.08984375-.755859375,0-1.33203125.26953125-2.0517578125,0h-2.447265625c-.32421875.224609375-.828125-.0454101562-1.0439453125.4497070312-.576171875,1.21484375-.2880859375,2.9248046875-.6123046875,4.1850585938-.072265625.224609375.072265625.4497070312.2158203125.5849609375.0361328125.4497070312.1796875,1.6645507812.1796875,2.2045898438,0,.2700195312-.287109375,1.3950195312-.1796875,1.7099609375.1796875.7651367188,1.9794921875.0903320312,2.51953125.3598632812h2.267578125l.2880859375-.3598632812.396484375-2.6547851562c.0361328125-.3149414062.359375-.5849609375.576171875-.6298828125,2.771484375-.5400390625,1.9072265625,2.5649414062,1.8349609375,4.8598632812v2.9248046875c.0361328125.8549804688.4326171875,2.0249023438-.2880859375,2.6098632812-.6474609375.2250976562-1.6552734375.08984375-1.943359375-.8549804688-.32421875-1.080078125.2158203125-1.9799804688-.576171875-2.8349609375-1.115234375.08984375-1.5478515625-.08984375-2.5556640625-.2250976562-.6474609375-.08984375-1.3671875.1352539062-2.0517578125.1352539062-.6474609375.2250976562-.935546875,1.7099609375-.68359375,2.4296875.072265625,1.7548828125-.1435546875,2.9248046875.2158203125,4.634765625,0,.1352539062-.072265625.4501953125-.107421875.4951171875v2.5649414062c0,.4047851562.8994140625.134765625,1.0791015625.3598632812.755859375.1801757812,1.4404296875.6298828125,2.16015625.2250976562h8.962890625c.2158203125-.5849609375,1.0078125-1.7998046875,1.3681640625-2.16015625l1.294921875-2.8344726562c.216796875-1.169921875.6484375-2.0249023438,1.65625-1.9350585938.8642578125.08984375.8642578125.3149414062.755859375,1.4399414062-.072265625.9897460938-.2158203125,1.9350585938-.4677734375,2.8349609375l-.396484375,4.724609375c-.03515625.4501953125-.287109375.8999023438-.611328125.990234375-.2158203125.044921875-1.2958984375.224609375-1.5478515625.2700195312h-.1796875c-.3603515625-.0454101562-2.0166015625-.1352539062-2.33984375-.1352539062-.4677734375-.2700195312-.900390625.044921875-1.3681640625,0-1.1875-.08984375-2.3759765625-.08984375-3.52734375-.3598632812h-5.0751953125c-.6845703125.1796875-1.0078125-.08984375-1.583984375,0-2.267578125.4047851562-4.6435546875.4047851562-6.9111328125.5849609375-.4677734375.044921875-.5400390625.044921875-1.0078125-.3598632812-.32421875-.3149414062-.072265625-3.1499023438.828125-3.1499023438Z"/>
      <path class="cls-2" d="M428.396765377,41.4119902633c-1.0439453125-1.259765625-1.583984375-2.384765625-2.267578125-3.8696289062-.32421875-.7651367188-.8642578125-1.3950195312-1.259765625-2.115234375-.755859375-1.3950195312-1.4755859375-3.0146484375-2.16015625-4.4995117188-.3232421875-.2700195312-1.6552734375-2.8349609375-1.7275390625-3.419921875l-1.0078125-1.5751953125c.1796875-.4047851562-2.1953125-3.7797851562-2.4111328125-4.2749023438-.0361328125-.044921875-.1083984375-.4497070312-.1083984375-.4946289062s-.2880859375-.0903320312-.2880859375-.1352539062c-.0361328125,0-.107421875-.08984375-.107421875-.134765625-.072265625-.0903320312-.5400390625-1.21484375-.576171875-1.3500976562-.251953125-.4951171875-.755859375-.8999023438-.7197265625-1.5747070312l-1.0439453125-1.7099609375c-.0361328125-.2250976562-.50390625-1.3500976562-.7919921875-1.080078125-.1083984375.08984375-.2880859375.3149414062-.2880859375.3598632812v1.6201171875l-.1083984375.2250976562v2.6997070312c-.1796875.4951171875-.107421875.9448242188,0,1.4399414062.1083984375.3598632812-.1796875.6748046875-.1796875.9448242188,0,.990234375.5400390625,3.6000976562.1796875,4.1850585938v1.7099609375c.0361328125.134765625.1806640625.5400390625.1083984375.7197265625,0,.044921875-.2158203125.4501953125-.2158203125.4951171875-.072265625.8100585938.1435546875,1.6650390625.2158203125,2.4296875v1.2602539062c-.0361328125.8100585938-.2158203125,3.1049804688,0,3.7797851562.32421875.9897460938,2.591796875-.3598632812,3.203125,1.080078125.32421875.7197265625.576171875,2.5649414062-.4677734375,2.6997070312h-.7919921875c-.0361328125-.044921875-.50390625-.134765625-.5751953125-.134765625-.720703125-.0903320312-3.0244140625-.2250976562-3.3115234375-.2250976562-1.224609375-.044921875-2.556640625.5400390625-3.744140625.3598632812-1.080078125-.1801757812-.86328125-3.2846679688-.1796875-3.2846679688h2.33984375c.7919921875,0,1.0439453125-.9453125,1.0791015625-1.7553710938.0361328125-.3598632812.0361328125-2.1596679688,0-2.51953125-.251953125-.6298828125.0361328125-.9453125.1083984375-1.6201171875v-1.7099609375c0-.3598632812-.072265625-1.9350585938-.1083984375-2.294921875.216796875-.4047851562.0361328125-.7646484375.1083984375-1.21484375.0361328125-.2700195312.2158203125-1.4848632812.2880859375-1.7548828125-.0361328125,0-.1083984375-.1801757812-.1083984375-.2250976562-.0361328125-.2250976562-.0712890625-.9448242188-.0712890625-1.080078125v-7.2446289062c.1435546875-.5400390625.1435546875-1.5747070312-.32421875-1.9345703125-.7919921875-.2250976562-3.0234375-.0454101562-3.3115234375-1.2153320312-.0361328125-.9897460938-.2158203125-2.384765625.7919921875-2.4296875,1.1875-.08984375,2.375.1796875,3.599609375.08984375.50390625,0,1.9794921875-.3598632812,2.447265625-.2250976562,1.15234375.3149414062,1.439453125,1.2153320312,2.0517578125,2.4301757812.2158203125.4047851562,1.259765625,2.294921875,1.4755859375,2.6997070312.072265625.8100585938.396484375,1.03515625.755859375,1.7099609375.072265625.08984375.4326171875.990234375.50390625,1.080078125.14453125.2700195312.6845703125.6298828125.6845703125,1.125l2.447265625,4.76953125c.0361328125.1801757812.9365234375,1.4853515625,1.1884765625,1.7099609375,0,0,.3232421875.1801757812.359375.2250976562s.1083984375.5849609375.1083984375.5849609375c.50390625,1.4399414062,1.3671875,2.6098632812,1.943359375,3.9150390625.072265625.134765625.431640625,1.259765625.50390625,1.349609375.2158203125.4501953125,1.15234375,2.115234375,1.65625,1.9799804688.2880859375-.7197265625.251953125-1.8447265625.1796875-2.5649414062.251953125-.08984375,0-1.21484375,0-1.259765625v-1.6650390625c0-.1796875.1083984375-1.3500976562.1083984375-1.4848632812.03515625-.08984375.03515625-.4501953125,0-.4951171875,0-.08984375-.1806640625-.7646484375-.1806640625-.8549804688v-.08984375c0-.08984375.072265625-.6748046875.072265625-.7651367188.0361328125-.4047851562.0361328125-2.2495117188,0-2.6547851562.2880859375-.9448242188,0-2.8349609375,0-3.6899414062.072265625-1.169921875.072265625-2.0698242188,0-3.2846679688,0-.1352539062.072265625-.8549804688-.251953125-.7202148438-.0361328125,0-.2158203125.2250976562-.2158203125.2250976562-.0361328125,0-.251953125-.134765625-.2880859375-.134765625-.1796875-.044921875-1.080078125-.1801757812-1.259765625-.2250976562-.32421875-.4501953125-.8642578125-.3149414062-1.1884765625-.4951171875-.7197265625-.3598632812-.791015625-3.2846679688,0-3.2846679688h2.4482421875c.2880859375.1796875.8642578125.2250976562,1.080078125.2250976562h2.2314453125c.1083984375,0,1.1513671875-.1352539062,1.259765625-.1352539062h1.404296875c1.115234375.08984375.86328125,1.6201171875.6474609375,2.5649414062-.3603515625,1.8447265625-3.3837890625.4501953125-3.3837890625,2.1147460938v2.5649414062c.1806640625.6298828125-.107421875,1.5302734375-.1435546875,2.205078125.1435546875.2250976562.1435546875.3598632812,0,.5849609375l-.0361328125,5.2646484375v.4951171875c-.0361328125,1.080078125-.1083984375,6.2998046875-.1435546875,7.4248046875-.0361328125,1.4399414062.68359375,6.7495117188-.396484375,7.8295898438-.50390625.134765625-1.0439453125.1801757812-1.5478515625,0-.0361328125-.044921875-.251953125-.2250976562-.2880859375-.2700195312Z"/>
      <path class="cls-2" d="M442.7629763145,41.2772246383c-4.572265625-2.16015625-7.451171875-7.5151367188-7.8115234375-13.4545898438-.072265625-.9448242188-.1435546875-2.294921875.2880859375-3.1499023438-.1083984375-2.6098632812.7197265625-5.2197265625,1.8720703125-7.3349609375.7919921875-1.5747070312,1.69140625-3.0595703125,2.9150390625-4.1396484375.828125-.7651367188,1.728515625-.8549804688,2.6279296875-1.259765625.935546875-.4052734375,1.9443359375-.8999023438,2.9521484375-1.080078125h.3955078125c1.404296875.2700195312,3.419921875-.08984375,4.751953125.4951171875,1.259765625.5400390625,2.267578125.9897460938,3.52734375,1.7099609375.072265625,0,.251953125.1796875.2880859375.224609375.1435546875.1801757812,1.259765625,1.4399414062,1.4033203125,1.5751953125.5400390625.6298828125,1.2958984375,1.169921875,1.7275390625,1.9799804688.1083984375.1796875.6484375,1.3950195312.7919921875,1.7099609375,1.080078125,2.7446289062,1.728515625,5.5346679688,1.65625,8.6845703125-.0361328125.044921875-.1083984375.2700195312-.1083984375.3598632812-.0712890625.3598632812-.4677734375,3.419921875-.5751953125,3.7797851562-.6845703125,2.7001953125-1.8359375,4.8149414062-3.3115234375,6.83984375-1.2607421875,1.7099609375-2.591796875,2.384765625-4.2119140625,3.5546875l-2.6279296875.8549804688c-.8994140625-.08984375-1.87109375.2700195312-2.7353515625.0903320312-.576171875-.0903320312-2.1240234375-.4501953125-2.267578125-.4951171875-.6484375-.1352539062-.97265625-.6752929688-1.5478515625-.9448242188ZM445.7864138145,39.4320097946h3.0234375c1.4404296875-.7197265625,2.3759765625-.6298828125,3.744140625-1.9799804688,1.5830078125-1.5297851562,2.5908203125-3.599609375,3.4189453125-5.849609375.396484375-1.169921875.6484375-1.5297851562.755859375-2.7900390625.1806640625-1.9799804688.1806640625-3.0595703125,0-5.1298828125-.0361328125-.4497070312.072265625-1.0346679688-.107421875-1.4399414062-.6484375-1.6645507812-1.5478515625-2.9697265625-2.412109375-4.4545898438-.2880859375-.4047851562-.072265625-.4951171875-.50390625-.8100585938-.0361328125,0-.1796875-.134765625-.2158203125-.134765625-1.15234375-1.125-2.3037109375-1.7099609375-3.671875-2.33984375-.4677734375-.2250976562-.935546875,0-1.4033203125-.2250976562-2.8076171875-.08984375-4.3916015625.08984375-6.7314453125,1.8447265625-.6123046875.4501953125-.900390625,1.6201171875-1.4755859375,2.205078125-.0361328125,0-.072265625.08984375-.1083984375.08984375-.4677734375,1.21484375-1.1162109375,2.4301757812-1.33203125,3.8247070312-.0361328125.1801757812-.32421875,2.4750976562-.3955078125,3.240234375-.072265625.7646484375.3232421875,1.7548828125,0,2.474609375,0,.2250976562.1435546875,1.3500976562.1796875,1.5751953125.1435546875.9897460938.1435546875,2.2045898438.6123046875,3.0595703125,0,.0903320312.431640625.7651367188.4677734375.8549804688.107421875.2250976562.611328125,1.3500976562.68359375,1.5751953125.5400390625.4497070312,1.0078125,1.080078125,1.4755859375,1.5747070312.9365234375,1.03515625,1.8720703125,1.6201171875,3.0244140625,2.205078125.1435546875.08984375.828125.5400390625.9716796875.6298828125Z"/>
      <path class="cls-2" d="M461.051062252,40.1971465133v-1.4399414062c.1083984375-2.0249023438,3.6357421875-.1801757812,3.6357421875-1.7998046875v-6.2548828125c.2158203125-.5400390625-.0361328125-1.2602539062,0-1.8452148438,0-.044921875.072265625-.4047851562.072265625-.4946289062.03515625-.044921875.2158203125-.4052734375.2158203125-.4501953125s-.1083984375-.2250976562-.1083984375-.2700195312c-.2158203125-1.080078125-.2880859375-2.474609375-.107421875-3.5546875v-4.5c.03515625-.08984375.107421875-.5400390625.107421875-.6298828125v-2.4296875c.1796875-.2250976562.1083984375-1.7548828125-.107421875-1.8002929688-.1083984375-.08984375-.720703125-.2700195312-.8642578125-.2700195312-.2158203125-.044921875-.50390625.0903320312-.68359375-.134765625-.900390625.134765625-1.404296875.1801757812-2.16015625-.2250976562-.3603515625-.2250976562-.50390625-.4951171875-.576171875-.9897460938-.4677734375-2.33984375.7919921875-2.115234375,2.232421875-1.9350585938.0712890625,0,.4677734375-.044921875.50390625,0,.1435546875,0,.755859375.08984375.8994140625.1352539062h4.9677734375c.2880859375-.0454101562,1.583984375-.1801757812,1.8359375-.2700195312,1.5478515625.134765625,1.1513671875,2.1147460938.611328125,3.2846679688-.755859375.4047851562-2.951171875.134765625-3.34765625.4951171875-.2158203125.224609375-.431640625.6748046875-.4677734375.9897460938-.1796875.990234375.2158203125,2.16015625.2880859375,3.1499023438,0,.2700195312-.072265625.3598632812-.072265625.6298828125-.0712890625.4052734375.1083984375.7202148438.072265625,1.080078125-.072265625.8100585938-.3603515625,1.6650390625-.072265625,2.4750976562v3.8696289062c.14453125.6748046875.32421875,1.7548828125,0,2.33984375v4.2749023438c-.0361328125.134765625-.1435546875,1.3051757812-.1435546875,1.4848632812,0,0,.107421875.3149414062.1435546875.3598632812.0361328125.8100585938-.576171875,2.3852539062.576171875,2.3852539062h2.8076171875c.6123046875,0,1.404296875,3.1044921875-.1796875,3.2397460938-.4326171875.044921875-1.2958984375.134765625-1.763671875-.2700195312-1.8359375.4047851562-3.81640625.2250976562-5.6513671875,0-.5400390625.5400390625-1.4404296875.6748046875-2.087890625.3598632812-.2880859375-.134765625-.5400390625-.5400390625-.576171875-.9897460938Z"/>
      <path class="cls-2" d="M490.461218502,38.8470488571c-.072265625-1.3046875-1.7998046875-3.1499023438-1.9443359375-4.58984375l-1.6552734375-3.6899414062c-.1083984375-.5400390625-.3603515625-.8095703125-.576171875-1.349609375-.0712890625-.1352539062-.0361328125-.3603515625-.2158203125-.4501953125-.68359375-.4497070312-1.1513671875-.5849609375-1.763671875-1.125,0-.044921875-.1435546875-.134765625-.1796875-.134765625-.216796875-.044921875-1.0078125-.3149414062-1.15234375-.3603515625h-.32421875c-1.0078125.0903320312-1.3671875.0903320312-2.2314453125,0-.3955078125-.044921875-1.3681640625-.044921875-1.3681640625,0l-.287109375.990234375v5.9848632812c.03515625.2250976562.1796875,1.4399414062.1796875,1.7099609375.072265625.8549804688-.072265625.9897460938.6123046875,1.349609375,1.04296875-.044921875,2.4111328125-.08984375,3.4912109375.0903320312.32421875.224609375.4677734375,1.0795898438.50390625,1.259765625.2880859375,1.169921875-.396484375,1.8901367188-1.259765625,1.9350585938h-2.16015625c-.1435546875,0-1.1513671875-.2250976562-1.2958984375-.2700195312-.7197265625-.08984375-1.1875.4047851562-1.943359375.134765625h-3.7080078125c-1.1875.7202148438-1.6552734375-1.6196289062-.791015625-2.4296875.50390625-.4501953125,3.1669921875-.3598632812,3.52734375-1.125.0361328125-1.259765625-.2158203125-2.6098632812-.1083984375-3.8701171875.14453125-1.7094726562.251953125-3.4194335938.32421875-5.1743164062v-.5854492188c-.14453125-1.39453125.0361328125-2.7446289062,0-4.1396484375-.0361328125-.08984375-.1083984375-.7651367188-.1083984375-.8549804688v-2.2045898438c-.2158203125-.5854492188-.2158203125-1.3051757812-.2158203125-1.9799804688.0361328125-.4052734375.1796875-2.4750976562.2158203125-2.9252929688-.0361328125-.4047851562-.0712890625-.8999023438-.3955078125-1.21484375-.828125-.6748046875-2.015625.1801757812-2.8076171875-.4497070312-.576171875-.4951171875-.5400390625-1.2153320312-.50390625-1.9799804688.1435546875-2.4301757812,5.111328125-.1352539062,6.1552734375-.8549804688h1.8359375c.0712890625,0,.3232421875-.08984375.3955078125-.1352539062h3.2392578125c.46875-.3598632812,1.0439453125-.044921875,1.5478515625,0,2.1240234375.2700195312,3.3837890625,1.2153320312,5.0751953125,2.5649414062.2880859375.2250976562.6123046875.9453125.900390625,1.2602539062.1083984375.3149414062.7197265625,1.8447265625.8642578125,2.1596679688.1435546875.4052734375.0712890625.2250976562.107421875.4951171875.14453125,2.5200195312-.072265625,4.3647460938-1.4755859375,6.3447265625-.1435546875.2700195312-.9716796875,1.169921875-1.1875,1.3500976562-.251953125.08984375-2.591796875,1.4848632812-2.6279296875,1.5747070312,1.6201171875,1.8901367188,3.1318359375,3.9150390625,4.103515625,6.3447265625.6474609375,1.6201171875,1.1513671875,3.1948242188,2.267578125,4.455078125.68359375.7646484375,1.943359375.8095703125,2.8076171875.7197265625.3603515625-.044921875.2880859375-.3149414062.68359375-.134765625.396484375.134765625.6484375.9897460938.6845703125,1.4399414062.03515625.8095703125,0,1.259765625-.576171875,1.6196289062-1.439453125.8100585938-2.6640625.9448242188-4.17578125.5849609375-.935546875-.1796875-1.943359375-1.4848632812-2.4833984375-2.33984375ZM479.914343502,24.4925566696c1.6923828125-.2700195312,3.1318359375-.08984375,4.8955078125-.1796875.4677734375-.0903320312,1.2958984375-.2250976562,1.763671875-.4501953125.4677734375-.2700195312,2.015625-1.9799804688,2.16015625-2.6997070312,0-.1352539062.1435546875-1.169921875.1796875-1.3500976562.50390625-2.9697265625-.900390625-4.634765625-2.9521484375-5.71484375-1.439453125-.8100585938-3.3828125-.4497070312-4.859375-.4047851562-.6474609375.044921875-1.4033203125-.044921875-1.943359375.4047851562-.2158203125,1.21484375-.6123046875,2.7900390625-.32421875,4.0498046875v4.8598632812c0,.2700195312.1806640625,1.21484375.396484375,1.3051757812.2158203125.134765625.4677734375.1796875.68359375.1796875Z"/>
      <path class="cls-2" d="M498.8860231895,37.8573027633h2.4111328125c.4326171875-.2250976562,1.3681640625-.0903320312,1.4765625-.8549804688.1435546875-1.125.251953125-2.294921875.1796875-3.419921875-.0361328125-.8100585938-.14453125-.8999023438-.072265625-1.6201171875,0-.1796875.14453125-1.9350585938.1806640625-2.2045898438.03515625-.1352539062.03515625-.8100585938,0-.9453125-.0361328125-.6298828125.0712890625-1.259765625,0-1.8447265625-.2880859375-2.7900390625-.2529296875-5.71484375-.1083984375-8.5498046875,0-.1796875.1796875-1.8447265625.1796875-2.0698242188.0361328125-.2700195312-.1796875-1.5297851562-.359375-1.5747070312-.900390625-.1801757812-1.908203125-.1801757812-2.736328125-.1352539062-1.1513671875-.4951171875-1.115234375-3.2397460938.1806640625-3.509765625,1.0439453125-.2700195312,2.1953125.3149414062,3.2392578125.3149414062h2.6279296875c.1435546875.134765625,5.974609375.1801757812,6.2626953125-.08984375,1.583984375.7197265625,4.283203125,0,5.939453125.08984375.7197265625-.3149414062.68359375-.1801757812,1.3681640625-.08984375,2.7353515625.3598632812,1.7998046875,2.4296875,2.5556640625,4.9946289062.0361328125.134765625.4677734375,1.259765625.5751953125,1.5747070312.576171875,1.4853515625.46875,2.294921875-.9716796875,2.0703125-.68359375-.0903320312-.8994140625-.9453125-1.1513671875-1.5751953125-.14453125-.3149414062-.755859375-1.7548828125-.900390625-2.0698242188-.2880859375-.08984375-.8994140625-.8999023438-1.3671875-1.125-.32421875-.134765625-1.15234375-.4047851562-1.4765625-.3598632812-.3955078125.08984375-.6474609375.2700195312-1.0791015625.134765625-.0361328125,0-.32421875-.224609375-.396484375-.224609375-.072265625-.0454101562-.5400390625-.0454101562-.6474609375,0-.216796875.044921875-1.080078125.1796875-1.2958984375.224609375l-.1806640625-.134765625c-.0712890625,0-1.0791015625-.08984375-1.4755859375-.08984375-.755859375,0-1.33203125.26953125-2.0517578125,0h-2.447265625c-.32421875.224609375-.828125-.0454101562-1.0439453125.4497070312-.576171875,1.21484375-.2880859375,2.9248046875-.6123046875,4.1850585938-.0712890625.224609375.072265625.4497070312.2158203125.5849609375.0361328125.4497070312.1806640625,1.6645507812.1806640625,2.2045898438,0,.2700195312-.2880859375,1.3950195312-.1806640625,1.7099609375.1806640625.7651367188,1.98046875.0903320312,2.5205078125.3598632812h2.267578125l.2880859375-.3598632812.3955078125-2.6547851562c.0361328125-.3149414062.3603515625-.5849609375.576171875-.6298828125,2.771484375-.5400390625,1.9072265625,2.5649414062,1.8359375,4.8598632812v2.9248046875c.03515625.8549804688.431640625,2.0249023438-.2880859375,2.6098632812-.6484375.2250976562-1.65625.08984375-1.9443359375-.8549804688-.3232421875-1.080078125.2158203125-1.9799804688-.5751953125-2.8349609375-1.1162109375.08984375-1.5478515625-.08984375-2.5556640625-.2250976562-.6484375-.08984375-1.3681640625.1352539062-2.0517578125.1352539062-.6484375.2250976562-.9365234375,1.7099609375-.6845703125,2.4296875.072265625,1.7548828125-.1435546875,2.9248046875.2158203125,4.634765625,0,.1352539062-.0712890625.4501953125-.107421875.4951171875v2.5649414062c0,.4047851562.8994140625.134765625,1.080078125.3598632812.755859375.1801757812,1.439453125.6298828125,2.1591796875.2250976562h8.962890625c.2158203125-.5849609375,1.0078125-1.7998046875,1.3681640625-2.16015625l1.2958984375-2.8344726562c.2158203125-1.169921875.6474609375-2.0249023438,1.6552734375-1.9350585938.8642578125.08984375.8642578125.3149414062.755859375,1.4399414062-.0712890625.9897460938-.2158203125,1.9350585938-.4677734375,2.8349609375l-.3955078125,4.724609375c-.0361328125.4501953125-.2880859375.8999023438-.6123046875.990234375-.2158203125.044921875-1.2958984375.224609375-1.5478515625.2700195312h-.1796875c-.3603515625-.0454101562-2.015625-.1352539062-2.33984375-.1352539062-.4677734375-.2700195312-.900390625.044921875-1.3681640625,0-1.1875-.08984375-2.375-.08984375-3.52734375-.3598632812h-5.0751953125c-.68359375.1796875-1.0078125-.08984375-1.583984375,0-2.267578125.4047851562-4.6435546875.4047851562-6.9111328125.5849609375-.4677734375.044921875-.5400390625.044921875-1.0078125-.3598632812-.32421875-.3149414062-.072265625-3.1499023438.828125-3.1499023438Z"/>
    </g>
    <g>
      <path class="cls-2" d="M191.574499752,88.5203887008l-9.6181640625-36.7504882812h7.0561523438l8.3579101562,32.5502929688h-3.5278320312l8.7358398438-32.5502929688h6.3002929688l8.3999023438,32.5502929688h-3.4018554688l8.5678710938-32.5502929688h6.509765625l-9.6176757812,36.7504882812h-7.3081054688l-7.4340820312-28.560546875h1.9321289062l-7.6440429688,28.560546875h-7.3081054688Z"/>
      <path class="cls-2" d="M246.006140377,81.6951933883h16.001953125v6.8251953125h-22.7641601562v-36.7504882812h22.2182617188v6.8256835938h-15.4560546875v23.099609375ZM245.502234127,66.5750762008h14.1538085938v6.615234375h-14.1538085938v-6.615234375Z"/>
      <path class="cls-2" d="M273.935827877,88.5203887008v-36.7504882812h14.3642578125c3.6962890625,0,6.474609375.8754882812,8.3369140625,2.6254882812s2.79296875,4.060546875,2.79296875,6.9296875c0,1.92578125-.3779296875,3.5966796875-1.1337890625,5.013671875-.755859375,1.41796875-1.7919921875,2.51171875-3.1083984375,3.28125-1.31640625.7705078125-2.828125,1.1552734375-4.53515625,1.1552734375l.7978515625-2.15234375c1.84765625,0,3.4853515625.3759765625,4.9140625,1.12890625,1.427734375.7529296875,2.541015625,1.86328125,3.3388671875,3.3330078125.7978515625,1.470703125,1.197265625,3.2734375,1.197265625,5.408203125,0,3.1494140625-.9951171875,5.609375-2.982421875,7.3759765625-1.98828125,1.767578125-4.9140625,2.6513671875-8.7783203125,2.6513671875h-15.2041015625ZM280.6980349082,82.1151152633h7.9379882812c1.7646484375,0,3.1005859375-.3583984375,4.0107421875-1.076171875.91015625-.716796875,1.365234375-1.8642578125,1.365234375-3.4384765625,0-1.5400390625-.455078125-2.685546875-1.365234375-3.439453125-.91015625-.751953125-2.24609375-1.1279296875-4.0107421875-1.1279296875h-8.4418945312v-6.1953125h7.2661132812c1.6513671875,0,2.9189453125-.3583984375,3.80078125-1.076171875.8818359375-.716796875,1.3232421875-1.8115234375,1.3232421875-3.28125,0-1.4345703125-.44140625-2.5107421875-1.3232421875-3.228515625s-2.1494140625-1.0771484375-3.80078125-1.0771484375h-6.7622070312v23.9404296875Z"/>
      <path class="cls-2" d="M340.6321169395,89.1502715133c-2.3525390625,0-4.6064453125-.3935546875-6.7626953125-1.181640625-2.15625-.787109375-3.8916015625-1.810546875-5.2080078125-3.0712890625l2.310546875-6.404296875c1.259765625,1.1201171875,2.7509765625,2.0390625,4.47265625,2.755859375,1.72265625.7177734375,3.46484375,1.076171875,5.2294921875,1.076171875,1.34375,0,2.4287109375-.166015625,3.2548828125-.4990234375.8251953125-.33203125,1.4345703125-.794921875,1.8271484375-1.390625.3916015625-.5947265625.587890625-1.27734375.587890625-2.0478515625,0-.9794921875-.30859375-1.7587890625-.923828125-2.3359375-.6162109375-.578125-1.4287109375-1.0498046875-2.4365234375-1.41796875-1.0078125-.3671875-2.12109375-.716796875-3.3388671875-1.0498046875-1.2177734375-.33203125-2.435546875-.7431640625-3.654296875-1.2333984375-1.2177734375-.490234375-2.3310546875-1.1201171875-3.3388671875-1.890625-1.0078125-.76953125-1.8271484375-1.78515625-2.45703125-3.044921875s-.9443359375-2.869140625-.9443359375-4.830078125c0-2.099609375.4541015625-4.015625,1.3642578125-5.748046875s2.2822265625-3.115234375,4.1162109375-4.1479492188c1.833984375-1.0322265625,4.13671875-1.548828125,6.9091796875-1.548828125,1.84765625,0,3.66796875.271484375,5.4599609375.8134765625,1.7919921875.54296875,3.3740234375,1.3569335938,4.74609375,2.4418945312l-2.1005859375,6.45703125c-1.3720703125-.9794921875-2.744140625-1.7060546875-4.115234375-2.1787109375-1.3720703125-.47265625-2.716796875-.708984375-4.0322265625-.708984375-1.31640625,0-2.39453125.193359375-3.234375.578125-.83984375.3857421875-1.4423828125.8837890625-1.8056640625,1.49609375-.3642578125.6123046875-.5458984375,1.3212890625-.5458984375,2.1259765625,0,.9453125.3076171875,1.7060546875.923828125,2.2841796875.615234375.5771484375,1.427734375,1.0419921875,2.4365234375,1.390625,1.0078125.3505859375,2.1201171875.701171875,3.3388671875,1.05078125,1.2177734375.349609375,2.435546875.7529296875,3.6533203125,1.20703125,1.21875.455078125,2.3310546875,1.068359375,3.3388671875,1.837890625,1.0087890625.76953125,1.8271484375,1.78515625,2.45703125,3.044921875.630859375,1.259765625.9453125,2.8525390625.9453125,4.77734375,0,2.0654296875-.4619140625,3.955078125-1.3857421875,5.669921875s-2.3037109375,3.09765625-4.13671875,4.1474609375c-1.8349609375,1.0498046875-4.1513671875,1.5751953125-6.951171875,1.5751953125Z"/>
      <path class="cls-2" d="M369.947546627,88.5203887008v-29.8203125h-9.408203125v-6.9301757812h25.6201171875v6.9301757812h-9.408203125v29.8203125h-6.8037109375Z"/>
      <path class="cls-2" d="M408.8821169395,89.1502715133c-4.1728515625,0-7.4345703125-1.4521484375-9.7861328125-4.357421875s-3.5283203125-7.052734375-3.5283203125-12.4423828125v-20.5805664062h6.8046875v20.2651367188c0,3.5.5732421875,6.0205078125,1.7216796875,7.560546875,1.1474609375,1.5400390625,2.7578125,2.3095703125,4.830078125,2.3095703125,2.0712890625,0,3.681640625-.76953125,4.830078125-2.3095703125,1.1474609375-1.5400390625,1.7216796875-4.060546875,1.7216796875-7.560546875v-20.2651367188h6.7197265625v20.5805664062c0,5.3896484375-1.17578125,9.537109375-3.52734375,12.4423828125-2.3525390625,2.9052734375-5.6142578125,4.357421875-9.7861328125,4.357421875Z"/>
      <path class="cls-2" d="M435.4250856895,88.5203887008v-36.7504882812h13.3564453125c3.1923828125,0,6.005859375.7612304688,8.4423828125,2.2836914062,2.435546875,1.5224609375,4.33984375,3.6494140625,5.7119140625,6.37890625,1.3701171875,2.73046875,2.0576171875,5.9677734375,2.0576171875,9.712890625,0,3.7099609375-.6875,6.9384765625-2.0576171875,9.685546875-1.3720703125,2.748046875-3.2763671875,4.8828125-5.7119140625,6.4052734375-2.4365234375,1.5224609375-5.25,2.2841796875-8.4423828125,2.2841796875h-13.3564453125ZM442.2297731895,81.5379668258h6.2158203125c1.958984375,0,3.66015625-.4638671875,5.1025390625-1.3916015625,1.4423828125-.9267578125,2.5625-2.248046875,3.3603515625-3.9638671875.7978515625-1.7138671875,1.197265625-3.7275390625,1.197265625-6.037109375,0-2.3447265625-.3994140625-4.3662109375-1.197265625-6.064453125-.7978515625-1.6962890625-1.91796875-3.0087890625-3.3603515625-3.9375-1.4423828125-.9267578125-3.1435546875-1.390625-5.1025390625-1.390625h-6.2158203125v22.78515625Z"/>
      <path class="cls-2" d="M476.627234127,88.5203887008v-36.7504882812h6.8037109375v36.7504882812h-6.8037109375Z"/>
      <path class="cls-2" d="M511.191687252,89.1502715133c-2.32421875,0-4.47265625-.47265625-6.4462890625-1.41796875-1.974609375-.9443359375-3.6826171875-2.2744140625-5.1240234375-3.9892578125-1.4423828125-1.71484375-2.5625-3.7275390625-3.3603515625-6.0380859375-.7978515625-2.3095703125-1.197265625-4.830078125-1.197265625-7.5595703125,0-2.73046875.3994140625-5.25,1.197265625-7.560546875.7978515625-2.3095703125,1.9248046875-4.322265625,3.380859375-6.037109375s3.1640625-3.0454101562,5.1240234375-3.990234375c1.9599609375-.9453125,4.087890625-1.4174804688,6.3837890625-1.4174804688,2.32421875,0,4.458984375.4721679688,6.4052734375,1.4174804688,1.9462890625.9448242188,3.6396484375,2.275390625,5.08203125,3.990234375,1.44140625,1.71484375,2.568359375,3.71875,3.380859375,6.0107421875.8115234375,2.29296875,1.2177734375,4.822265625,1.2177734375,7.5869140625,0,2.7294921875-.40625,5.2587890625-1.2177734375,7.5859375-.8125,2.328125-1.939453125,4.3408203125-3.380859375,6.037109375-1.4423828125,1.6982421875-3.1357421875,3.01953125-5.08203125,3.9638671875-1.9462890625.9453125-4.0673828125,1.41796875-6.36328125,1.41796875ZM511.1496950645,81.9051543258c1.31640625,0,2.52734375-.279296875,3.6337890625-.83984375,1.10546875-.5595703125,2.078125-1.365234375,2.9189453125-2.4150390625.83984375-1.0498046875,1.490234375-2.2919921875,1.9521484375-3.7275390625.462890625-1.4345703125.693359375-3.02734375.693359375-4.77734375s-.23046875-3.341796875-.693359375-4.77734375c-.4619140625-1.435546875-1.10546875-2.677734375-1.931640625-3.7275390625-.826171875-1.05078125-1.798828125-1.85546875-2.9189453125-2.4150390625s-2.337890625-.83984375-3.654296875-.83984375-2.5263671875.2802734375-3.6328125.83984375-2.0791015625,1.3642578125-2.9189453125,2.4150390625c-.83984375,1.0498046875-1.4912109375,2.2919921875-1.953125,3.7275390625s-.6923828125,3.02734375-.6923828125,4.77734375c0,1.71484375.23046875,3.298828125.6923828125,4.7509765625.4619140625,1.453125,1.1064453125,2.7041015625,1.9326171875,3.75390625.8251953125,1.0498046875,1.798828125,1.85546875,2.9189453125,2.4150390625,1.119140625.560546875,2.3369140625.83984375,3.6533203125.83984375Z"/>
    </g>
  </g>
</svg>